<svg xmlns="http://www.w3.org/2000/svg" viewBox="0 0 210 297"><defs><path id="a" d="M86.178572 94.021578h22.300595v24.757441H86.178572z"/></defs><g style="line-height:1.25;-inkscape-font-specification:'Vincentia, Normal';font-variant-ligatures:normal;font-variant-caps:normal;font-variant-numeric:normal;font-variant-east-asian:normal"><path style="-inkscape-font-specification:'Vincentia, Normal';font-variant-ligatures:normal;font-variant-caps:normal;font-variant-numeric:normal;font-variant-east-asian:normal" d="M91.651664 103.08621c0 .0106.01058.0106 0 .0212v.0106c-.01058 0-.01058-.0106-.01058-.0106 0-.0106.01058-.0106.01058-.0212zm-.391582 1.17475h-.01058v-.0212c.01058 0 .01058.0106.01058.0106v.0106zm3.100907-1.60866s-.01058.0212-.02117.0212c-.01058.0106-.02117 0-.03175 0 .01058-.0106.01058-.0317.02117-.0317.01058 0 .02117 0 .03175.0106zm1.883827-1.78858c.01058.0106.01058.0212.02117.0318-.01058 0-.02117 0-.03175.0106 0-.0106 0-.0212-.01058-.0423h.02117zm-4.32857 1.64041s0 .0106-.01058.0106c-.01058-.0106-.03175-.0212-.04233-.0423 0 0 .01058-.0212.02117-.0318.02117 0 .03175.0106.03175.0423.01058 0 0 .0106 0 .0212zm-.391582 1.10067c-.01058 0-.03175.0106-.04233.0106 0 0 0-.0212-.01058-.0318.01058-.0106.03175-.0212.03175-.0106.01058 0 .02117.0212.02117.0318zm.105833-.37042c-.01058.0212 0 .0318-.01058.0423 0 .0106-.02117.0212-.02117.0212-.01058-.0106-.02117-.0212-.01058-.0318 0-.0106 0-.0212.01058-.0318 0-.0106.01058-.0106.01058-.0106.01058 0 .01058.0106.02117.0106zm2.476492-.39158v.0212c-.07408.0529-.137583.10583-.211666.14816-.02117.0106-.05292 0-.05292-.0106s0-.0317.01058-.0423c.0635-.0635.169333-.11642.232833-.127.01058 0 .01058.0106.02117.0106zm.02117-.28575c-.04233.0847-.116416.13758-.190499.1905-.03175.0106-.0635.0212-.08467.0212-.01058 0-.02117-.0106-.03175-.0212 0-.0106 0-.0212.01058-.0212.01058-.0106.02117-.0318.03175-.0318.09525-.0106.169333-.0953.264583-.13758zm-.973664.67733v.0212c-.01058.0106-.02117.0106-.03175.0212 0 0-.01058-.0106-.02117-.0106.01058-.0106.02117-.0212.03175-.0318h.02117c.03175-.0423.0635-.0953.127-.0953.01058 0 .02117.0106.02117.0106v.0212c-.04233.0423-.09525.0529-.148167.0635zm.349249-.21167c.03175-.0318.05292-.0635.08467-.0952 0 0 .01058 0 .01058.0106.01058 0 .01058.0106.01058.0212-.03175.0317-.0635.0529-.105833.0529-.02117.0318-.04233.0635-.0635.0953h-.03175c-.02117 0-.03175-.0318-.02117-.0529.03175-.0423.07408-.0423.116416-.0318zm2.233076-1.71449c.03175 0 .07408 0 .09525.0423-.02117.0318-.04233.0741-.0635.10584 0 .0106-.02117.0106-.03175.0106-.01058 0-.03175-.0106-.03175-.0212-.01058-.0318-.01058-.0635-.01058-.0847-.05292-.0318-.0635-.0741-.07408-.127-.01058-.0318-.01058-.0529-.05292-.0635-.148167.0635-.232833.21166-.370416.29633-.03175.0106-.05292.0423-.08467.0635-.1905.1905-.380999.381-.603248.52916-.275166.20109-.539749.40217-.793748.61384-.105833.0741-.222249.14816-.306915.254-.01058.0106-.03175.0106-.05292.0212s-.05292.0212-.07408.0423c-.03175.0635-.116416.0529-.15875.0952-.05292.0529-.116416.0741-.169332.0953-.15875.0529-.306916.127-.455082.21167-.05292.0318-.105833.0529-.15875.0847-.05292.0212-.105833.0423-.158749.0635-.0635.0317-.127.0635-.201083.0847-.03175.0212-.0635.0212-.09525-.0106.04233-.26458.15875-.508.243416-.762.03175-.11641.0635-.254.148166-.35983-.01058-.0741.0635-.10583.08467-.16933.02117-.0635.04233-.13759.07408-.20109.03175-.11641.0635-.22224.105833-.32808.07408-.17991.137583-.35983.190499-.53975.02117-.0847.09525-.14816.05292-.24341 0-.0106.01058-.0317.02117-.0423.07408-.0741.09525-.16933.127-.26458.07408-.20108.148166-.40216.211666-.60325.02117-.0529.04233-.116412.05292-.169329-.03175-.07408-.0635-.137583-.07408-.201082-.02117-.09525-.137582-.127-.158749-.22225 0-.02117-.01058-.03175-.02117-.04233-.01058 0-.02117-.02117-.04233-.02117-.07408-.02117-.148166-.05292-.222249-.05292-.1905 0-.380999-.01058-.571498.04233-.179916.0635-.359832.116417-.529165.1905-.328083.148166-.645582.317499-.952497.486834-.137583.0741-.275166.11641-.433916.11641-.0635 0-.116416.0106-.169332.0318-.05292 0-.0635.0635-.03175.0953.08467.0741.169333.13759.264582.20109.0635.0423.137583.0318.201083 0 .105833-.0529.211666-.10584.317499-.15875.296332-.14817.592665-.29634.910164-.39159.126999-.04233.253999-.08466.359832-.169328.07408-.05292.158749-.08467.243416-.137583h.07408c0 .08467.01058.158749-.03175.232832-.05292.09525-.0635.190499-.09525.285749-.02117.0847-.03175.15875-.0635.23283-.105833.29634-.211666.59267-.306916.889-.0635.1905-.148166.381-.1905.58208 0 .0212 0 .0529-.02117.0741-.04233.0635-.0635.13759-.08467.20109-.0635.1905-.126999.37041-.190499.55033-.0635.1905-.137583.37041-.201083.56091-.05292.15875-.116416.30692-.179916.46567-.08467.22225-.158749.4445-.243416.67733 0 0 0 .0106-.01058.0212-.07408.26458-.137583.52916-.222249.79374-.08467.28575-.169333.5715-.211666.86783 0 .0212-.01058.0529-.02117.0741-.02117.0529-.01058.0952.02117.127.03175.0318.0635.0635.09525.0847.116417.0741.22225.14817.338666.21167.0635.0318.148166.0423.232833.0529.05292.0106.105833-.0529.09525-.11642-.01058-.0212-.02117-.0529-.03175-.0847-.01058-.0423-.01058-.0953.02117-.14816.05292-.0741.0635-.16934.05292-.26458-.01058-.0741 0-.14817.02117-.22225.02117-.0953.05292-.1905.09525-.28575.03175-.0423.0635-.0952.0635-.15875-.01058-.13759.03175-.254.105833-.37042.02117-.0318.04233-.0741.03175-.127-.01058-.0106 0-.0423.01058-.0529.05292-.0635.07408-.14817.08467-.22225.01058-.0423.01058-.0847.02117-.127 0-.0212.02117-.0423.03175-.0529.01058-.0106.03175-.0212.04233-.0106.04233.0106.08467.0423.116416.0847.105833.15875.243416.28575.349249.4445.05292.0847.127.15875.201083.23283.148166.14817.306915.28575.433915.45509.02117.0423.0635.0847.09525.11641.09525.0847.179916.16934.264582.26459l.507999.50799c.05292.0529.105833.0953.158749.13759.201083.15875.391582.30691.582082.47624.222249.20109.465665.37042.730247.508.08467.0529.179916.0953.275166.11642.317499.0635.634998.0529.952497-.0423.07408-.0212.148166-.0529.211666-.0952.08467-.0423.169333-.0953.232833-.15875.07408-.0529.137583-.10584.232832-.127.08467-.0106.09525-.0741.04233-.13759-.03175-.0529-.0635-.0952-.105833-.13758-.03175-.0317-.07408-.0423-.116416-.0317-.07408.0317-.148166.0529-.201083.0847-.148166.10583-.306915.11641-.465665.0953-.169333-.0212-.338665-.0318-.518581-.0318-.07408 0-.137583-.0212-.201083-.0529-.08467-.0529-.15875-.10583-.232833-.15875-.03175-.0106-.0635-.0318-.07408-.0529-.04233-.0847-.116416-.127-.179916-.17992-.09525-.0741-.179916-.14817-.275166-.22225-.232832-.21167-.486831-.41275-.751414-.59266-.03175-.0212-.05292-.0423-.07408-.0741-.105833-.16933-.264583-.30691-.402165-.45508-.105833-.0953-.201083-.1905-.296333-.28575-.158749-.16933-.306916-.32808-.465665-.48683-.127-.13758-.243416-.27517-.359832-.43392.03175-.0106.05292-.0318.07408-.0423.07408-.0318.137583-.0529.201083-.0847.201082-.0741.391582-.16933.582081-.24341.137583-.0635.264583-.127.380999-.21167.201083-.14816.391582-.29633.613831-.42333.07408-.0423.148166-.0847.201083-.14817.0635-.0635.137583-.11641.211666-.15874.116416-.0635.222249-.14817.317499-.22225.222249-.17992.433915-.34925.645581-.52917.1905-.14817.370416-.30691.518582-.48683.105833-.11642.222249-.21167.328082-.3175.05292-.0529.105833-.10583.148166-.15875.137583-.17992.285749-.34925.402166-.53975.02117-.0423.04233-.0847.07408-.11641.08467-.0952.148166-.21167.211666-.32809.0635-.127.137583-.253995.201083-.380995.05292-.105833.09525-.211666.116416-.328082.01058-.0635.01058-.137583.05292-.201083.05292-.07408.03175-.137583 0-.211666-.05292-.08467-.09525-.169333-.179916-.211666-.03175-.01058-.0635-.04233-.08467-.0635-.07408-.05292-.148166-.08467-.222249-.08467-.05292-.01058-.09525.02117-.08467.0635.02117.07408 0 .126999-.03175.190499-.03175.07408-.07408.15875-.09525.243416-.01058.07408-.04233.137583-.0635.201083-.04233.105833-.09525.211666-.148166.317499-.05292.126999-.105833.253999-.22225.349251-.02117.0212-.03175.0635-.05292.0952-.02117.0318-.04233.0741-.0635.10583-.127.15875-.222249.32808-.380999.45508-.04233.0952-.137583.15875-.211666.23283-.02117.0212-.04233.0423-.05292.0741-.01058.0106-.01058.0318 0 .0318.01058.0212.03175.0423.04233.0423.04233 0 .07408-.0212.09525-.0529.01058-.0529.03175-.0953.08467-.11641.03175.0423.05292.0741.07408.10583.03175-.0106.05292-.0212.07408-.0318.02117 0 .04233 0 .05292.0106.03175.0318 0 .0423-.02117.0529-.0635.0318-.0635.10583-.08467.14817-.02117.0318-.0635.0423-.09525.0318-.01058-.0106-.02117-.0212-.03175-.0318-.03175-.0318-.05292-.0212-.07408 0-.02117.0212-.03175.0529-.05292.0741z" aria-label="K" font-weight="400" font-size="10.5833" font-family="Vincentia" stroke-width=".264583"/></g></svg>