<svg xmlns="http://www.w3.org/2000/svg" viewBox="0 0 261.93066406 85.83467102"><path fill="none" pointer-events="none" d="M0 0h261.93066406v85.83467102H0z"/><path fill="#fff" d="M53.9181229 40.45835697c.01358529.04981269.0498127.09736116.04302006.14490963-.00905686.04528427-.05434112.08377589-.08151167.12679594-.0158495-.0498127-.0498127-.1018896-.04302005-.14943807.00679264-.04075583.0520769-.08151167.08151167-.1222675zm-3.37594167 10.03272809c-.03169899-.01358528-.09509695-.03169898-.09056853-.04528426 0-.04302005.02717056-.08151167.04075584-.12453172.03169898.0181137.0860401.03169898.0860401.04528426.0022642.04302005-.02264213.08151167-.03622741.12453172zm26.58638981-13.81849234c-.06339797.08151167-.11321065.19698654-.19698654.23774237-.0701906.03169899-.18340126-.02943477-.276234-.04754847.0520769-.08377588.09283274-.21510024.16528756-.24453501.0860401-.03169898.20151497.03169898.30793298.05434111zM93.2044838 21.38462611c.07924746.08151167.1539665.16755176.22642131.24906343-.08377588.03849162-.16981598.07698325-.25359186.11321066-.03169899-.09962538-.0701906-.19925075-.09283274-.30114034-.00226421-.01132107.07924746-.03849162.1200033-.06113375zm-36.99044884 14.038121c-.03622741.04754847-.07019061.09509695-.10641802.14264542-.13358857-.11321065-.28755506-.21736445-.38491622-.35321723-.02943477-.04302005.07698324-.2603845.14717385-.276234.21736445-.04754847.32604668.09736116.35548145.30793298.00679264.05660533-.00905685.1200033-.01132106.17887283zm-3.3782059 9.4440327c-.11094644.0339632-.23321394.1222675-.32378247.09509694-.06566218-.02490634-.0883043-.1924581-.12906014-.2943477.10641801-.03849162.24000658-.138117.31019719-.10188958.07698324.0339632.09509695.19472232.14264542.30114034zm.86266518-3.1359351c-.00679264.11094644.01132107.23094973-.0362274.31925404-.04528427.08830431-.1539665.14490964-.23547817.21283603-.0362274-.09056852-.09962537-.18566547-.09736116-.27396978.00679264-.10641801.06113375-.21962867.11321065-.31698983.02264213-.0362274.1041538-.07245482.14943807-.06113375.04302004.01132106.0701906.07698324.10641801.1200033zm21.1952985-3.36462061c0 .0860401.02490635.18113704-.00452842.20151496-.58416697.41887942-1.17059816.8332304-1.7683504 1.2317319-.15170228.10641802-.47322054.01811371-.46416368-.10868222.00679263-.11773908.02264213-.26944136.09283273-.34416039.50944794-.51171215 1.45815322-1.01210324 2.02420648-1.07776542.04075584-.00452842.09056852.07245482.1200033.09736117zm.1720802-2.44761433c-.3464246.74266189-.97587583 1.1955045-1.63023341 1.6098555-.1901939.12453171-.45510683.14943805-.6928492.1743444-.06339796.00905685-.16075913-.12453172-.21283603-.21057182-.02490634-.0339632-.00679264-.12679593.02943477-.16528755.07245482-.09509695.16075913-.23094973.2603845-.24453501.87851468-.13358857 1.45136058-.81058828 2.24609937-1.16380552zm-8.30513353 5.78506438c.01358528.05660533.0520769.15170228.03169899.16981598-.08151167.07245482-.18113705.13358857-.28076242.16981598-.03169899.00905686-.09509695-.06113375-.14490964-.09736116.0860401-.0701906.16075913-.15396649.25132765-.21510024.04302005-.02490634.11773908.00452843.17660862.00679264.276234-.40302993.54567535-.81964513 1.10040755-.85587254.04528426-.00226421.11321065.04528426.14264542.09283274.02490635.03849162.03849162.12679593.01358528.15170227-.35321724.35774567-.82417355.46416368-1.29060145.57737433zM69.76987858 39.87419c.23774237-.26491293.47548474-.53435429.72001975-.797003.00905685-.01358528.11321066.02264213.13358857.06113375.02717056.03849162.03169899.11547487.01132107.15849492-.2060434.33283932-.49586266.53435428-.89889259.5388827-.16075913.25132766-.30566876.51171216-.48907002.7449261-.04528426.06566218-.21283603.06566218-.31925404.04754848-.1720802-.02943477-.22189288-.276234-.11547487-.43472891.24000659-.3622741.58643118-.37585937.95776213-.31925404zM88.87078 25.1952967c.30566876.00679263.62265859-.01811371.8309662.37585936-.16075914.27849821-.3283109.60001647-.52982587.9011568-.0520769.07698325-.21283602.138117-.30793297.1200033-.09509695-.0181137-.21962867-.12679594-.24679923-.21962867-.06339796-.23321395-.0860401-.4845416-.12000329-.72454818-.43699312-.2264213-.56605327-.63624387-.65209336-1.07097278-.04528426-.24453501-.09283274-.47774896-.45284262-.55699642-1.20003292.60228068-1.976658 1.81589888-3.15857722 2.51554072-.26264872.1562307-.47548475.40076571-.6928492.62039438-1.64155447 1.60985549-3.30575107 3.17895514-5.18504792 4.52842613-2.31855418 1.66193239-4.5737104 3.41669752-6.81528133 5.1827837-.87398624.68832078-1.84759786 1.27248775-2.54497548 2.1827014-.09056852.1200033-.3101972.14038121-.47095632.21962867-.21510024.10641801-.52303322.16528755-.6249228.34189617-.33057511.55699642-1.0053106.4845416-1.4015479.85360833-.43246469.40302992-.95096948.57963854-1.47853112.76077559-1.35852784.46642789-2.6174303 1.14116338-3.85369064 1.86797578-.42340784.24679922-.87625046.4528426-1.32230043.66115021-.44831419.2083076-.91021365.40302993-1.36305627.60228068-.56831748.24679922-1.13437074.50944794-1.71174507.72681239-.2943477.11321065-.61133753.11321065-.88757153-.1041538.4166152-2.26194885 1.37211312-4.35181751 2.07401917-6.51866942.33963196-1.05285907.57511012-2.1668519 1.28380881-3.07253713-.05660533-.63850808.54793956-.9532337.72228397-1.47626691.1924581-.59095961.41208678-1.17512658.61813017-1.76155777.32831089-.9373842.60454488-1.89741055.9871969-2.81215263.62265858-1.49438062 1.17059815-3.00461073 1.5781565-4.57144617.17887283-.69964184.80605985-1.29060145.5026553-2.114775-.02943477-.07924747.05886954-.23321395.13358857-.30793298.63624387-.64756494.81058828-1.51928697 1.10267176-2.32534682.61586596-1.69363138 1.22267506-3.39179117 1.81137045-5.0944794.18566548-.520769.31925405-1.06191593.45737104-1.5238154-.244535-.61586595-.520769-1.12304967-.63624387-1.65966817-.17660862-.85587254-1.18871186-1.10720019-1.3336215-1.96760115-.0181137-.1018896-.14490963-.19472233-.23774236-.27849821-.09283274-.08151167-.1901939-.18113705-.30114034-.21283603-.6566218-.18113704-1.32003622-.48907002-1.98118643-.4845416-1.6098555.00679264-3.24688154-.0543411-4.81145277.42340785-1.5419291.47095632-3.11329296.92832736-4.56918196 1.60306285-2.76460416 1.2815446-5.48392405 2.66497878-8.1624881 4.11407514-1.18871186.6407723-2.38421636 1.00304639-3.71557364 1.04833065-.49133424.0181137-.98266848.11321065-1.46494586.21510024-.40529414.0860401-.5547322.6226586-.24679922.87172203.7290766.57511012 1.46041742 1.15701288 2.22798565 1.67551767.55926063.37812358 1.18871186.30793297 1.77967147.0181137.89662838-.4347289 1.79099254-.8671936 2.67177142-1.32682885 2.53591863-1.32682886 5.10806468-2.55403234 7.85455512-3.40764067 1.05965172-.3283109 2.114775-.69964183 3.04536658-1.37437733.64756493-.47548474 1.39701946-.80379564 2.114775-1.17286237.14490964-.07245481.34416039-.03849162.62039438-.06339796.00226421.7268124.04528426 1.39475525-.28981927 2.0287349-.41887942.77436087-.57737433 1.63249762-.79926721 2.47252067-.17434441.66115022-.33283933 1.32682886-.55699642 1.96986537-.87398624 2.52233335-1.77967147 5.03334564-2.64912929 7.56020742-.56605326 1.64155448-1.22493926 3.2582026-1.57362808 4.96994768-.04981268.23774237-.08151167.50944794-.21736445.69737763-.36680252.52303321-.51624058 1.11852125-.7109629 1.70948086-.51624058 1.59174179-1.09587913 3.16536987-1.65966818 4.74352637-.55699641 1.5758923-1.15927709 3.13819931-1.6823103 4.72767688-.4505784 1.36079206-1.04153802 2.66271457-1.55098596 3.99633606-.73134082 1.91552426-1.41060474 3.846898-2.10798236 5.77374332-.02037792.05660533-.02717056.1222675-.04302005.18113704-.63624387 2.2710057-1.22720348 4.5578609-1.9245811 6.80622448-.75398295 2.43855747-1.47853114 4.87258652-1.78193569 7.41529779-.02943477.244535-.11321065.48227738-.20604339.7109629-.1562307.39397307-.08151167.7290766.2060434 1.0234243.25812028.26944136.49812687.57284591.80153142.77436087.93059157.6226586 1.8543905 1.27475196 2.84838003 1.77287883.59095961.29661192 1.30645094.36680252 1.97892222.47322054.51171216.0860401.91474208-.44152155.80153143-.98266848-.04754848-.244535-.14038121-.47774895-.20377918-.71775554-.11773908-.4347289-.13585278-.87398624.12679593-1.25890246.48907003-.71549133.56605327-1.5079659.45737104-2.32534682-.08151167-.63397966.02490635-1.23399612.16981598-1.84306943.20377918-.8490799.45284262-1.67778189.8830431-2.44535011.2422708-.43020049.49586266-.87398625.48227738-1.39701947-.03169898-1.15248445.33963196-2.1827014.92606315-3.15857722.18792968-.3124614.35774566-.64530073.24679922-1.0551233-.03849162-.14490963.04754847-.37585936.15396649-.49586265.47095632-.54793956.5728459-1.22267506.70643448-1.8883537.07471903-.3645383.09283273-.74039767.17660861-1.10493597.04075584-.16981598.16075913-.33057511.28076242-.4664279.06339797-.07471903.21962867-.12679593.31472562-.10641801.44604997.11094644.76983244.41208678 1.0211601.76756823.9373842 1.317772 2.12383185 2.43176483 3.0000823 3.80387795.46416368.72454818 1.09814334 1.34720677 1.7140093 1.96080851 1.27701616 1.27248775 2.64912928 2.44987854 3.68161044 3.9510518.24906344.35321724.5705817.658886.87851467.96681898.74945452.7449261 1.52155118 1.46721007 2.26647728 2.2166646 1.44456793 1.45362478 2.86875795 2.9298917 4.32011853 4.38125227.43925733.43699313.9192705.8309662 1.40154788 1.22267506 1.63702605 1.3336215 3.35103534 2.59025975 4.91787078 4.00086449 1.9064674 1.72080193 3.98275078 3.17895514 6.22658593 4.40615862.75171874.414351 1.5781565.77662508 2.41138691.95776213 2.7215841.5909596 5.440904.49133423 8.11720384-.31472562.64756494-.19472232 1.27248775-.49812687 1.86118314-.83549462.69964184-.40302993 1.39022683-.84228726 2.00156435-1.35852784.57963855-.4868058 1.14569181-.88983573 1.91778847-1.05285907.7449261-.16075913.87398624-.63397966.42793627-1.23852455-.2943477-.40076571-.60228068-.79247457-.94870528-1.1434276-.27170556-.276234-.6249228-.40529414-1.02116009-.24453501-.57737433.23774237-1.21135399.38718043-1.71400929.7268124-1.2136182.82417355-2.57214604.96908319-3.91935281.76756822-1.47853114-.2241571-2.95706227-.28981927-4.44012183-.276234-.66115021.00226422-1.22493926-.13132435-1.75702933-.45963524-.68832078-.42567206-1.35852784-.8671936-2.03099912-1.31324358-.2060434-.13358857-.45963526-.26491293-.56378906-.46416368-.35774566-.70417026-1.02568852-1.07097278-1.58721336-1.55325016-.75398295-.64530073-1.55325016-1.24078876-2.29591204-1.9064674-2.04232019-1.82948416-4.18879417-3.5185871-6.45753567-5.05598778-.25132765-.16981598-.50491951-.38491622-.66115021-.63624387-.92832736-1.50343748-2.22119302-2.6695072-3.45971757-3.89218226-.84002304-.8309662-1.69589558-1.64381868-2.52006914-2.49289858-1.34041413-1.38343419-2.6536577-2.79630314-3.99407184-4.1774731-1.08229385-1.11852126-2.07628338-2.30723312-3.01819602-3.6385904.23547816-.16302335.41208678-.33963197.62718702-.42793627.56831748-.23547816 1.16833394-.40982257 1.73665142-.65435758 1.65513975-.7109629 3.28084473-1.49211641 4.95409819-2.15326663 1.17059815-.46416367 2.23251408-1.06870856 3.25140996-1.79778517 1.71400929-1.22493927 3.3804701-2.52233335 5.22353954-3.56387136.65209336-.36680252 1.26116668-.78794615 1.7864641-1.3336215.5185048-.5366185 1.1434276-.9373842 1.79099254-1.32682886.94870528-.57511011 1.8543905-1.23626033 2.72384832-1.93137374 1.84306944-1.4717385 3.64538304-3.00008231 5.47939562-4.47861344 1.60306285-1.29060145 3.16084144-2.63101559 4.49446293-4.19105839.85134412-1.00304639 1.82948416-1.84306943 2.77592522-2.73290517.45284261-.42340784.90568523-.85813675 1.27928038-1.34720677 1.16380552-1.52834382 2.4430859-2.96838333 3.39179118-4.65522206.18340125-.32151826.38491622-.64756494.6407723-.9170063.7811535-.82417355 1.29739408-1.81137045 1.81137045-2.8076242.56605326-1.10493597 1.17059815-2.18722982 1.71853771-3.30122265.43472891-.88757152.83549462-1.79099253 1.00078218-2.7895105.09962537-.60001645.14264542-1.22946769.50718372-1.77967146.38491622-.58190276.22189288-1.17286237-.07924745-1.76382198-.37133095-.7290766-.74266189-1.42645423-1.53060804-1.80910624-.26944135-.13358857-.46416367-.41208678-.71775554-.58643118-.57511012-.38944465-1.20456135-.64756494-1.89741055-.73134082-.4166152-.05434112-.81058827.22868552-.69964183.6226586.16528755.60001645 0 1.08229384-.25585608 1.60079863-.3283109.66567864-.68605656 1.34947098-.8309662 2.0626981-.12679593.6226586-.36000987 1.18871186-.58416697 1.75929355-.36680251.92606315-.79247457 1.82495573-1.21588241 2.72837675-.50039109 1.06418014-.93059157 2.1668519-1.87929685 2.9638549-.2264213.18792968-.3283109.520769-.48907002.78568193-.19472232.31698983-.34868881.66567864-.58190276.95096949-1.05965171 1.29060145-1.86118314 2.80309577-3.21744676 3.846898-.3985015.87625045-1.18191922 1.4038121-1.85665472 2.0287349-.18113704.16755177-.32604668.3803878-.44831418.59095961-.04981269.08830431-.04981269.27396978.00905685.34416039.11321065.12679593.28076242.2784982.4347289.28981927.32604669.02037792.61360175-.12679593.7449261-.44831418.1539665-.38944465.2581203-.8151167.76303981-.92832736.23094973.29661191.44604997.58190276.658886.86040096.2264213-.09962537.38944465-.20151496.56831748-.23774237.16755177-.0339632.42793627-.0701906.51397637.02264213.24000658.26491293-.01132107.40982257-.2264213.52529743-.49586267.27396978-.49586267.82870199-.7268124 1.25437404-.15170228.27396978-.49133424.37812358-.80153143.21736446-.10641801-.0520769-.19472232-.14717385-.276234-.24000659-.2264213-.25812029-.4528426-.14490964-.63397965.02943477-.17660862.16528755-.30340455.38944465-.45284261.58643118zm20.76736223 16.01704322c-2.40233006 3.97142972-4.74352637 7.9881437-7.68700336 11.59956353-.75851137.92606315-1.60985548 1.79099254-2.48837015 2.60610924-.62945124.58416697-1.38343419 1.02795273-2.33666789.9871969-.10641801-.1200033-.29887612-.22868552-.31925404-.36680252-.24453501-1.53966488-.33963196-3.08838662.1200033-4.59635252 1.3019225-4.27030584 3.32612899-8.16475232 6.19941537-11.5927709.91247786-1.08682227 2.02194226-2.00156435 2.68082826-3.30801529.16302335-.32604668.57737434-.52303321.98040426-.86945781 1.85665472 1.12078547 2.21440038 3.03857393 3.19480464 4.63484414-.1041538.2784982-.16981598.62039438-.34416039.90568523zm17.88049058 1.4377753c-.08151167.21057181-.15849492.42114363-.23774237.63397965-1.39249104 3.708781-2.7374336 7.44020414-4.505784 10.99501865-1.9245811 3.87180434-4.11860357 7.56473585-7.11868588 10.7278415-.83549462.88077888-1.71174508 1.63702605-3.01140338 1.80004939-.12000329-.28981927-.244535-.49133424-.28302663-.70643448-.67926392-3.86048327-.49812688-7.69832442.7109629-11.40710542 1.12304968-3.42349016 2.50648386-6.76999707 3.83557693-10.12556083.54793957-1.38343418 1.31324358-2.67629984 1.8883537-4.05067717 1.05512329-2.50421965-.73813346-5.10127204-3.41669752-5.29825858-1.18418343-.0883043-1.44230372 1.49211641-2.64233664 1.1253139-.12679593-.04075584-.414351.34868881-.59095961.5728459-.26944136.33963196-.50718373.70417027-.79247458 1.1094644-.76530401-.9554979-1.42871844-1.81816309-2.13062449-2.6536577-1.44683215-1.71853772-4.60540937-2.3208184-6.61829479-1.30418673-1.08682227.54793956-2.09439708 1.19097607-2.87328638 2.13968134-.7630398.93059157-1.47853113 1.89967477-2.252892 2.8234737-2.68309248 3.2061257-4.16388783 6.98736152-5.10580046 10.98143336-.72228397 3.04536658-.13358857 5.77827175 2.42044377 7.9202173 1.63476183 1.3675847 3.80387794 1.4196616 5.44543242.10641802 1.18418343-.95096949 2.08307602-2.11930343 3.0000823-3.29669422 2.7872463-3.58424929 5.36165655-7.30208714 7.37454196-11.38899172.2264213-.45510683.49359845-.89662838.74039767-1.34267835.07698325.02037792.1562307.04075584.23321395.06339797-.60454489 1.77514304-1.21588242 3.54802187-1.80684203 5.32769334-1.06191592 3.2061257-2.2868552 6.35791029-2.59705238 9.77913623-.21962867 2.37968793-.138117 4.68918526.64756494 6.95339832.7449261 2.15100241 2.17138032 3.60009878 4.39710177 4.21370052 1.05512329.29208348 2.02420648.21057181 2.97064754-.38491622 1.54645752-.96455477 2.60837345-2.42950062 3.61368405-3.84916222 1.61664813-2.28459098 2.9638549-4.76164007 4.3857807-7.18208384 1.60306286-2.72384832 3.14952038-5.46581034 4.21143631-8.46815686.68832077-1.96533694 1.41513317-3.9170886 2.26647728-5.81449915h-2.15779505zm4.44691446 12.52789089c.19472232.87172203.16302334 1.36305626-.44604998 1.75929355-.2966119-.71549133.24453502-1.03021695.44604998-1.75929355zm25.81882158-12.89922184c-1.24078876.61360174-1.67325345 1.79552096-2.36610265 2.74875466-2.2189288 3.07253713-4.29068376 6.26054913-6.68622118 9.18591241-2.43855747 2.97517597-5.29599436 5.579021-8.43192946 7.84323406-.73586924.52982586-1.43098266 1.05965171-2.34572473 1.53740067-1.14116339.92379893-1.52155118 1.08002963-2.83026634 1.72080193-.73813345.5728459-1.55325016.71775554-2.00156435.70643448-.45963525-1.21588242-.382652-1.17059816-.04302004-2.25968464.6951134-2.24609936 1.35626362-4.51031243 2.20534352-6.69754225.95549792-2.4611996 2.15779505-4.8182454 3.64991146-7.00773944 1.38796261-2.03552754 2.73064096-4.10048986 4.21370052-6.06356259.9871969-1.30645094 1.03021694-2.44082168-.0520769-3.63406197-1.24984561-1.37664154-2.71026304-2.08760444-4.58955989-1.76608619-.61813016.1041538-1.2475814.18113705-1.85665471.33283932-1.00078217.25132765-1.98571486.56605327-2.9819686.83775884-1.29286567.3486888-1.93137375.32378247-3.12914246-.09509695.06113375-.15849492.1041538-.32604668.17887283-.47322053 1.06418014-2.14420978 2.6513935-3.86727592 4.42200812-5.43411136 1.42419001-1.25890246 1.46041742-2.8597011.02717055-4.11860357-.38491622-.33963195-.76077559-.69964183-1.17512658-1.0053106-.97587583-.71775554-2.68082827-.59322382-3.28310894.23094974-1.27928038 1.76155776-2.58573132 3.5027376-3.7948211 5.31410806-.49812687.74945453-.79247457 1.64381869-1.1434276 2.49063437-.28302663.67926392-.14717385 1.35852784.12679593 2.008357.9713474 2.31855417 3.01140338 3.3623564 5.14202787 4.2816269.24000659.10641801.56152484.04981269.84455148.02717055 1.53966488-.11321065 3.09970768-.05886953 4.57371039-.63171544.04754847-.0181137.1562307.1222675.3124614.2603845-1.6302334 2.39553743-3.21518255 4.8340949-4.18879417 7.61454854-.48907002 1.39701946-1.11852125 2.74875466-1.68457452 4.12086778-.63171544 1.53966488-1.20229714 3.10650033-1.91326004 4.60767359-1.46947428 3.08838662-.2943477 6.21073644 1.43551108 8.15343125.43472891.49133423 1.12984232.74266188 1.69136716 1.12531389 1.9042032 1.30192251 2.64686508-.15170228 4.84088754-1.53287225.14490963-.0883043.80605985-.57963854.96908319-.6430365 2.89592851-1.54645753 5.07183727-3.27858053 7.46058205-5.42958294 1.52834382-1.38116997 2.911778-2.9298917 4.32011853-4.4378576.66115021-.7109629 1.28833723-1.46721007 1.838541-2.26421307 1.85891893-2.6876209 3.58198508-5.47260298 5.86204763-7.84549827.4324647-.45284261.85360833-.94870528 1.15022024-1.49438062.23321395-.42340785.26944136-.95549792.40302993-1.48532378-.45284262-.31925404-.8128525-.5728459-1.17059816-.82870198zm4.93598448-1.04606643c1.44003951-2.32761103 3.70425258-3.78576425 5.84846235-5.73978012-.62718702 1.98571485-2.6513935 3.61594826-5.84846235 5.73978012zM157.3066199 57.9516671c-.97587584-1.6302334-1.18871186-2.80083156-.87398625-4.35408172.47095632-2.32534682 1.34267835-4.49672715 2.41365113-6.60470952.29661191-.5909596.68605656-1.03021694 1.2656951-1.34494256 1.06191593-.5728459 2.12383186-1.15022023 3.13819931-1.79325674 2.62875137-1.67325346 4.94051291-3.72010207 6.89905721-6.14507426.6928492-.85813676 1.1615413-1.82269152 1.36305627-2.93442014.22189288-1.2294677-.21057182-2.16005926-1.20003293-2.81894526-1.43324687-.95096949-2.9797044-1.05059486-4.60540937-.51397637-1.26116668.41887942-2.02420648 1.46494586-3.02498866 2.20760774-3.60236298 2.67856406-5.89827503 6.40093034-8.13078912 10.13235347-1.01436745 1.6981598-1.53966488 3.69745993-2.22572144 5.58354942-1.3517352 3.708781.39397307 9.1677987 5.11712153 10.8659585 2.05137704.73813346 4.04388453.42793627 5.75789382-1.06644436.7788893-.67473549 1.6098555-1.29512987 2.38874479-1.96760115 1.25890246-1.08455806 2.55856076-2.12836028 3.73368734-3.30348686 3.66349674-3.66576096 6.52999048-7.98135106 9.69536035-12.05693458.09962537-.12679593.11773908-.31472561.16981598-.45963525-.8671936-1.46947428-1.37437733-1.53287224-2.33440367-.23321394-1.15701288 1.57136386-2.30270469 3.14725616-3.38952696 4.77296114-3.00008231 4.49219872-6.55942525 8.4047589-11.28936634 11.15804198-1.56683545.91247787-3.188012 1.1592771-4.8680581.87625046zm34.08319927-5.57449257c-.11321066.08830431-.21510024.33510354-.1720802.45510683.52756165 1.41513317-.81738091 2.25515621-1.06191592 3.4144333-.33963196-1.81816309.21510024-3.50273761.89889258-5.01296772.81058828-1.79325675 1.15701288-3.69293151 1.79099254-5.51788724.18340126-.52756165.23321394-1.11625705.99625375-1.45815322.0883043.85134411.28981927 1.64381869-.14490964 2.29591205-.90794944 1.36532048-1.10040755 2.98876125-1.72533035 4.4537071-.19472233.45284261-.11773908 1.01210324-.58190276 1.3698489zm19.20731943-10.95652702c-.4845416-.06339797-.9690832-.13132436-1.45362479-.19472232-.85360832 1.52155118-1.7162735 3.0340455-2.59025974 4.5420114-1.0392738 1.79099254-2.08986866 3.57066401-3.17895515 5.32769335-1.11852125 1.80457781-2.34572473 3.54802187-3.4302828 5.37524182-1.36079204 2.29817626-3.04083814 3.1902762-4.8182454 5.13976365-.26717714.2943477-.60454488.5366185-.94644106.73813346-.4007657.23774238-.84002304.39623729-1.34267834-.0520769.06113375-2.17138033-.06339797-3.4144333.46189946-5.60392733 1.25890247-5.27561645 3.2921658-10.2772631 5.41146923-15.24041815 1.02568852-2.40006585 1.65287554-4.89296443 2.25062778-7.4017125.31925405-1.34041414-.15170227-2.62195874-1.2498456-3.37141326-1.6800461-1.14569181-3.5163229-1.46721007-5.51788725-.52303322-2.16458769 1.01889588-3.7427442 2.68082827-5.13976366 4.49219872-3.23782468 4.18879417-5.98431513 8.70589924-8.60853807 13.30225176-.14038121.24679923-.32151826.47774896-.66567864.9871969.06339796-.52303322.05434111-.69964184.11094644-.85360833.91474208-2.59252396 1.838541-5.18957634 2.773661-7.77757188.34868882-.97361162.78568194-1.91778846 1.08229385-2.90272115.37133094-1.23399612.30793298-2.54271127-.80605985-3.2921658-1.2634309-.85813675-2.7034704-1.61438391-4.36993122-.58416697-.4347289 1.30871516-.82417355 2.68762091-1.34720677 4.0189782-1.26795932 3.21518255-2.18043718 6.53678312-2.87102217 9.9127248-.38718043 1.90420318-.5728459 3.82425586-.37133094 5.81223493.19472232 1.91099583 1.32682885 2.67856406 2.85517267 3.21971098.47548475.16528756.99851797.1901939 1.61438392.30340455.47322053-.65662178 1.01210324-1.26343089 1.37890576-1.95175166 1.04833065-1.9743938 2.05137703-3.9691655 3.02951708-5.9797867.75171873-1.54872174 1.594006-3.01819602 2.70799882-4.36087437.75171874-.90568522 1.24984562-2.03779176 1.77967147-3.11102875 1.0030464-2.01967805 2.17364455-3.93746652 3.708781-5.57222835.74719032-.79247458 1.45815322-1.59853443 2.1306245-2.45440697.59775225-.75624716 1.30192251-1.4219258 2.635544-1.67325345-.11321065.64756494-.12906014 1.03700958-.24906343 1.39249103-.84228726 2.55856077-1.72533036 5.10580047-2.54950391 7.67115387-.37133095 1.15022024-.59095961 2.34798895-.9690832 3.49594497-.20151496.6226586-.67926391 1.15701288-.87398624 1.77967147-.70869869 2.27779835-1.25663825 4.6099378-2.04232018 6.85830138-.94191264 2.69214933-1.19324029 4.43106497-1.06418014 7.28170921.07471903 1.6279692.79247457 2.71705568 2.13515292 3.47330285.55020377.30793297 1.13210653.55926062 1.72080193.79021036 2.16911611.84228726 5.03334564-.22642131 6.02733518-2.31855418.48227738-1.00757482 1.10720019-1.86118314 1.90420318-2.62875137.49133424-.47322053.797003-.00905685 1.17512659-.57511012 1.72306614-2.57214604 3.50500182-5.1125931 5.08315833-7.77304345 1.92231689-3.24461733 3.7608579-6.53904734 5.60845576-9.82894892-.36906673.0701906-.74266189.11094644-1.12984232.11094644zm6.28319126-11.31427269c-.11547487-1.83401258.19472232-3.28763737.89209994-4.62125886 1.53513646-2.93894856 3.13367089-5.84393392 4.71862003-8.75571193.54567535-1.0053106 1.22720348-1.83174837 2.55176813-1.60985549 1.43324687.24000659 2.6174303.91021366 3.22876783 2.2687415.382652.8490799.02490634 1.67551766-.44831419 2.43402904-.91247786 1.45362479-1.85665471 2.88687166-2.71252725 4.37219543-.80153143 1.3856984-1.52155118 2.81668105-2.23251408 4.25219214-.93512 1.88156105-1.87929685 2.39780163-3.98048657 2.0626981-.65435758-.10641802-1.30645094-.2581203-2.01741384-.40302993zm8.64023705 12.07051985c-.01132106.02037792-.02490634.03849163-.03849162.06113376-3.31933635 5.28014487-7.5398295 9.68177506-12.78601118 13.07809466-.8309662.53435429-1.68910294.98040426-2.89819272.89436416-.23774237-1.041538.02037792-1.9245811.24000658-2.8076242.65209337-2.64007243 1.91778847-5.0446667 3.06348028-7.47190311.99851796-2.114775 2.31855418-4.08690459 3.54575766-6.08846894.47095632-.76530401.68379235-1.56683544.7290766-2.44082168.0498127-.93512-.23321394-1.69136716-1.09587912-2.1668519-.35095302-.19472233-.6769997-.44152155-1.03021694-.62945124-1.22041084-.63624387-1.9743938-.53435428-2.93215592.46416368-.35095303.36906673-.67020707.79926721-.89209995 1.25663825-1.43324687 2.94347699-2.90951379 5.86431184-4.22502158 8.85760152-.96455476 2.19628667-1.98345064 4.39710177-2.21666459 6.85377294-.1222675 1.24531719-.04075583 2.42044377.74945453 3.42801858.45510682.58416698.99625374 1.1072002 1.52834382 1.63023341 1.66193238 1.64155447 3.2763163 1.86571157 5.28240908.74266189.44831418-.25132765.92606314-.47322053 1.32909307-.78568194 2.98649703-2.32987524 5.88016133-4.73673373 8.43192945-7.57605691 1.9404306-2.15553084 3.61821248-4.48993451 5.22353954-6.87415087-.71775554-.02264213-1.39249103-.16755177-2.00835699-.42567206zm33.14581507-1.28833723c-.42793627 1.00304639-.73360504 1.7841999-.7607756 2.01288542-.5388827.86492939-.92606314 1.47626691-1.30645093 2.09213287-.17660862.28981927-.33963196.5909596-.50944794.8830431-2.02194227 3.49594497-4.59861674 6.59565265-7.05755213 9.776872-1.5419291 1.99477172-3.64764724 3.06348029-6.0318636 3.5502861-1.91778847-1.32909307-3.25367418-2.88687166-3.74953684-5.10353625-.30114034-1.33814993-.70190605-2.65818614-1.15474866-3.95331602-.43699312-1.24531718-.14490964-2.2347783.74719031-3.13367088.28076242-.28302663.53209007-.60228067.7788893-.91700629 1.62344076-2.0785476 3.3283932-4.08464037 5.4771314-5.66279688 1.05965171-.77888929 2.22572144-1.47853113 3.09517926-2.44082168.9690832-1.06870857 1.89288212-2.10118972 3.44160386-2.5132765-.26491293-1.00757482-.88077888-1.5238154-1.70721665-1.58494915-.84002305-.05886954-1.76382198-.0339632-2.5313902.26264872-1.49211642.57737433-2.99328968 1.24078876-4.15256677 2.40233006-1.86797578 1.86344735-3.68387466 3.7789716-5.5292083 5.66279688-.25585608.26264871-.55926063.47095631-1.0573875.8853073-.0339632-2.45893538-.20151497-4.63484414-.04754848-6.78584655.14490963-2.05590547-.49133424-3.36462062-2.4091227-4.23407843-1.18418344-.53888271-2.26421307-.40302993-3.3080153.00905685-1.00078217.40076571-.64982914 1.46947428-.7132271 2.29817626-.01132107.11321065.00679263.22868552.00905684.34189617.14490964 4.25219214.5003911 8.48853478 1.48305956 12.6343089.33510354 1.4038121.15170228 2.52459757-.69058498 3.70425258-2.00156435 2.80083156-3.8627475 5.7012885-5.86431184 8.50438427-1.53513646 2.14420978-3.0680087 4.2974764-5.10580046 6.03639204-1.03021695.87625045-2.10571815 1.57362808-3.42801859 1.88382527-.76756822.18113704-1.52155117.43699312-2.50195543.72001975 2.71026304 3.0159318 5.83034864 2.40233006 7.71643812.78341772 2.01741385-1.72985878 3.76765054-3.71104521 5.30731543-5.86204762 1.77287883-2.46799225 3.4483965-5.00164667 5.19636898-7.48775261.35095303-.49586266.82870199-.89889259 1.33814993-1.44456794.32151825.44152155.59775225.72907661.76077559 1.073237.53435428 1.11625704 1.3517352 1.9947717 2.29138362 2.76460415 2.10118972 1.732123 4.59635252 2.5653534 7.22510389 3.01140338.64982915.11094644 1.45815321.0701906 2.02420648-.22642131 1.51023011-.78568193 3.00913916-1.58721336 4.1412457-2.9819686.88077888-1.08229385 1.49664483-2.30044048 2.26421306-3.43481123 1.0573875-1.56683544 2.23930672-3.05442342 3.24461732-4.65295785.81738092-1.30418672 1.4717385-2.7215841 2.16911612-4.10048986.74945453-1.4898522 1.50570169-2.96838333 2.29817626-4.43332918-.4868058-.0520769-.96002634-.16981598-1.39249103-.33963196z"/></svg>