<svg xmlns="http://www.w3.org/2000/svg" viewBox="0 0 225.6931 81.21972"><path fill="none" pointer-events="none" d="M0 0h225.6931v81.21972H0z"/><path fill="#fff" d="M16.47973 39.25752c.01358.04981.04981.09736.04302.1449-.00906.0453-.05434.08378-.08151.1268-.01585-.0498-.04982-.10189-.04302-.14943.00679-.04076.05207-.08152.0815-.12227zm-3.37594 10.03272c-.0317-.01358-.0951-.0317-.09057-.04528 0-.04302.02717-.08151.04075-.12453.0317.01811.08605.0317.08605.04528.00226.04302-.02265.08151-.03623.12453zm26.58638-13.81849c-.0634.08152-.1132.197-.19698.23775-.0702.0317-.1834-.02944-.27624-.04755.05208-.08378.09283-.2151.16529-.24454.08604-.0317.20151.0317.30793.05434zM55.76608 20.1838c.07925.08151.15397.16755.22642.24906a12.43466 12.43466 0 01-.25359.11322c-.0317-.09963-.07019-.19926-.09283-.30114-.00227-.01133.07925-.0385.12-.06114zM18.77564 34.22191c-.03623.04755-.07019.0951-.10642.14264-.13359-.1132-.28755-.21736-.38491-.35321-.02944-.04302.07698-.26039.14717-.27624.21736-.04754.32605.09737.35548.30794.0068.0566-.00906.12-.01132.17887zm-3.3782 9.44403c-.11095.03396-.23322.12227-.32379.0951-.06566-.0249-.0883-.19246-.12906-.29435.10642-.0385.24-.13812.3102-.10189.07698.03396.0951.19472.14265.30114zm.86266-3.13593c-.0068.11094.01132.23095-.03623.31925-.04528.0883-.15396.14491-.23548.21284-.03622-.09057-.09962-.18567-.09736-.27397.0068-.10642.06114-.21963.11321-.317.02265-.03622.10416-.07245.14944-.06113.04302.01132.0702.07699.10642.12zm21.1953-3.36462c0 .08604.0249.18113-.00453.20151-.58417.41888-1.1706.83323-1.76835 1.23173-.1517.10642-.47322.01812-.46417-.10868.0068-.11774.02264-.26944.09284-.34416.50944-.51171 1.45815-1.0121 2.0242-1.07777.04076-.00452.09057.07246.12.09737zm.17207-2.44762c-.34642.74266-.97587 1.1955-1.63023 1.60986-.1902.12453-.4551.14944-.69285.17434-.0634.00906-.16076-.12453-.21283-.21057-.02491-.03396-.0068-.1268.02943-.16529.07246-.0951.16076-.23095.26039-.24453.87851-.1336 1.45136-.8106 2.2461-1.1638zm-8.30513 5.78507c.01359.0566.05208.1517.0317.16981-.08151.07246-.18114.13359-.28076.16982-.0317.00905-.0951-.06114-.14491-.09736.08604-.0702.16076-.15397.25133-.2151.04302-.02491.11774.00452.1766.00679.27624-.40303.54568-.81965 1.10041-.85587.04529-.00227.11321.04528.14265.09283.0249.0385.03849.1268.01358.1517-.35321.35775-.82417.46416-1.2906.57738zm3.00914-1.82949c.23774-.26491.47549-.53435.72002-.797.00906-.01359.11321.02264.13359.06113.02717.0385.0317.11548.01132.1585-.20604.33284-.49586.53435-.8989.53888-.16075.25133-.30566.51171-.48906.74493-.04529.06566-.21284.06566-.31926.04754-.17208-.02943-.22189-.27623-.11547-.43472.24-.36228.58643-.37586.95776-.31926zm19.1009-14.67889c.30567.0068.62266-.01811.83097.37586-.16076.2785-.32832.60002-.52983.90116-.05208.07698-.21284.13811-.30793.12-.0951-.01811-.21963-.1268-.2468-.21963-.0634-.23321-.08604-.48454-.12-.72455-.437-.22642-.56606-.63624-.6521-1.07097-.04528-.24453-.09283-.47775-.45284-.557-1.20003.60229-1.97666 1.8159-3.15858 2.51555-.26265.15623-.47548.40076-.69285.62039-1.64155 1.60985-3.30575 3.17895-5.18504 4.52842-2.31856 1.66194-4.57371 3.4167-6.81528 5.18279-.87399.68832-1.8476 1.27248-2.54498 2.1827-.09057.12-.3102.14038-.47096.21963-.2151.10641-.52303.16528-.62492.3419-.33057.55699-1.0053.48453-1.40155.8536-.43246.40303-.95097.57964-1.47853.76078-1.35852.46642-2.61743 1.14116-3.85369 1.86797-.4234.2468-.87625.45284-1.3223.66115-.44831.20831-.91021.40303-1.36305.60228-.56832.2468-1.13437.50945-1.71175.72681-.29435.11322-.61134.11322-.88757-.10415.41662-2.26195 1.37211-4.35182 2.07402-6.51867.33963-1.05286.57511-2.16685 1.2838-3.07253-.0566-.63851.54795-.95324.7223-1.47627.19245-.59096.41208-1.17513.61812-1.76156.32831-.93738.60455-1.8974.9872-2.81215.62266-1.49438 1.1706-3.00461 1.57816-4.57145.17887-.69964.80605-1.2906.50265-2.11477-.02943-.07925.05887-.23321.13359-.30793.63624-.64757.81059-1.51929 1.10267-2.32535.61587-1.69363 1.22268-3.39179 1.81137-5.09448.18567-.52077.31925-1.06191.45737-1.52381-.24453-.61587-.52077-1.12305-.63624-1.65967-.17661-.85587-1.18871-1.1072-1.33362-1.9676-.01812-.1019-.14491-.19472-.23775-.2785-.09283-.08151-.19019-.18114-.30114-.21284-.65662-.18113-1.32003-.48907-1.98118-.48454-1.60986.0068-3.24688-.05434-4.81145.42341-1.54193.47096-3.1133.92833-4.56919 1.60306-2.7646 1.28155-5.48392 2.66498-8.16248 4.11408-1.18871.64077-2.38422 1.00304-3.71557 1.04833-.49134.01811-.98267.1132-1.46495.2151-.4053.08604-.55473.62266-.2468.87172.72908.57511 1.46042 1.15701 2.22799 1.67552.55926.37812 1.1887.30793 1.77967.01811.89663-.43473 1.79099-.8672 2.67177-1.32683 2.53592-1.32683 5.10806-2.55403 7.85455-3.40764 1.05965-.3283 2.11478-.69964 3.04537-1.37437.64756-.47549 1.39702-.8038 2.11477-1.17287.14491-.07245.34416-.03849.6204-.0634.00226.72682.04528 1.39476-.28982 2.02874-.41888.77436-.57738 1.6325-.79927 2.47252-.17434.66115-.33284 1.32683-.557 1.96987-.87398 2.52233-1.77967 5.03334-2.64912 7.5602-.56606 1.64156-1.22494 3.2582-1.57363 4.96995-.04982.23774-.08151.50945-.21737.69738-.3668.52303-.51624 1.11852-.71096 1.70948-.51624 1.59174-1.09588 3.16537-1.65967 4.74352-.557 1.5759-1.15927 3.1382-1.6823 4.72768-.45059 1.36079-1.04155 2.66271-1.551 3.99633-.73133 1.91553-1.4106 3.8469-2.10798 5.77375-.02037.0566-.02717.12226-.04302.18113-.63624 2.271-1.2272 4.55786-1.92458 6.80623-.75398 2.43855-1.47853 4.87258-1.78193 7.4153-.02944.24453-.11321.48227-.20604.71095-.15624.39398-.08152.72908.20604 1.02343.25812.26944.49813.57284.80153.77436.9306.62266 1.85439 1.27475 2.84838 1.77288.59096.29661 1.30645.3668 1.97892.47322.51171.08604.91474-.44152.80153-.98267-.04755-.24454-.14038-.47775-.20378-.71776-.11774-.43472-.13585-.87398.1268-1.2589.48907-.71549.56605-1.50796.45737-2.32534-.08151-.63398.0249-1.234.16982-1.84307.20378-.84908.45284-1.67778.88304-2.44535.24227-.4302.49586-.87399.48228-1.39702-.0317-1.15249.33963-2.1827.92606-3.15858.18793-.31246.35774-.6453.2468-1.05512-.0385-.14491.04755-.37586.15396-.49586.47096-.54794.57285-1.22268.70644-1.88836.07472-.36454.09283-.7404.1766-1.10493.04076-.16982.16077-.33058.28077-.46643.0634-.07472.21963-.1268.31473-.10642.44605.11095.76983.41209 1.02116.76757.93738 1.31777 2.12383 2.43176 3.00008 3.80388.46416.72454 1.09814 1.3472 1.714 1.9608 1.27702 1.2725 2.64914 2.44988 3.68162 3.95106.24906.35321.57058.65888.87851.96681.74945.74493 1.52155 1.46721 2.26648 2.21667 1.44457 1.45362 2.86875 2.92989 4.32012 4.38125.43925.437.91927.83097 1.40154 1.22267 1.63703 1.33363 3.35104 2.59026 4.91787 4.00087 1.90647 1.7208 3.98275 3.17895 6.22659 4.40616.75172.41435 1.57815.77662 2.41138.95776 2.72159.59096 5.4409.49133 8.1172-.31473.64757-.19472 1.2725-.49812 1.86119-.8355.69964-.40302 1.39023-.84228 2.00156-1.35852.57964-.4868 1.1457-.88984 1.9178-1.05286.74492-.16076.87398-.63398.42793-1.23852-.29435-.40077-.60228-.79248-.9487-1.14343-.27171-.27623-.62493-.4053-1.02117-.24454-.57737.23775-1.21135.38719-1.714.72682-1.21362.82417-2.57215.96908-3.91936.76757-1.47853-.22416-2.95706-.28982-4.44012-.27624-.66115.00227-1.22494-.13132-1.75703-.45963-.68832-.42568-1.35853-.8672-2.031-1.31325-.20604-.13359-.45963-.26491-.56379-.46416-.35774-.70417-1.02568-1.07097-1.58721-1.55325-.75398-.6453-1.55325-1.24079-2.29591-1.90647-2.04232-1.82948-4.1888-3.51858-6.45754-5.05598-.25132-.16982-.50492-.38492-.66115-.63625-.92832-1.50344-2.22119-2.6695-3.45971-3.89218-.84003-.83097-1.6959-1.64382-2.52007-2.4929-1.34042-1.38343-2.65366-2.7963-3.99407-4.17747-1.0823-1.11852-2.07629-2.30723-3.0182-3.63859.23548-.16302.41209-.33963.62719-.42794.56832-.23547 1.16833-.40982 1.73665-.65435 1.65514-.71097 3.28084-1.49212 4.9541-2.15327 1.1706-.46416 2.23251-1.0687 3.2514-1.79778 1.71402-1.22494 3.38048-2.52234 5.22355-3.56388.65209-.3668 1.26116-.78794 1.78646-1.33362.5185-.53661 1.14343-.93738 1.791-1.32683.9487-.5751 1.85438-1.23626 2.72384-1.93137 1.84307-1.47174 3.64538-3.00008 5.4794-4.47861 1.60306-1.2906 3.16083-2.63102 4.49446-4.19106.85134-1.00304 1.82948-1.84307 2.77592-2.7329.45284-.42341.90569-.85814 1.27928-1.34721 1.1638-1.52834 2.44309-2.96838 3.3918-4.65522.1834-.32152.3849-.64757.64076-.917.78116-.82418 1.2974-1.81138 1.81137-2.80763.56606-1.10494 1.1706-2.18723 1.71854-3.30122.43473-.88757.8355-1.791 1.00078-2.78951.09963-.60002.14265-1.22947.50719-1.77967.38491-.5819.22189-1.17287-.07925-1.76383-.37133-.72907-.74266-1.42645-1.5306-1.8091-.26945-.13359-.46417-.41209-.71776-.58643-.57511-.38945-1.20457-.64757-1.89741-.73134-.41662-.05434-.8106.22868-.69965.62266.1653.60001 0 1.08229-.25585 1.6008-.32831.66567-.68606 1.34946-.83097 2.0627-.1268.62265-.36 1.1887-.58417 1.75928-.3668.92607-.79247 1.82496-1.21588 2.72838-.50039 1.06418-.93059 2.16685-1.8793 2.96386-.22642.18792-.3283.52076-.48906.78568-.19473.31699-.3487.66568-.5819.95097-1.05966 1.2906-1.86119 2.8031-3.21745 3.8469-.3985.87624-1.18192 1.4038-1.85666 2.02873-.18113.16755-.32604.38039-.44831.59096-.04981.0883-.04981.27397.00906.34416.1132.1268.28076.2785.43472.28982.32605.02037.6136-.1268.74493-.44832.15397-.38944.25812-.81511.76304-.92832.23095.2966.44605.5819.65889.8604.22642-.09963.38944-.20152.56831-.23775.16756-.03396.42794-.07019.51398.02265.24.2649-.01132.40982-.22642.5253-.49586.27396-.49586.8287-.72681 1.25437-.1517.27397-.49134.37812-.80153.21736-.10642-.05208-.19473-.14717-.27624-.24-.22642-.25812-.45284-.14491-.63398.02943-.1766.16529-.3034.38944-.45284.58643zM72.19974 40.0115c-2.40233 3.97143-4.74353 7.98814-7.687 11.59956-.75852.92607-1.60986 1.791-2.48837 2.60611-.62946.58417-1.38344 1.02795-2.33667.9872-.10642-.12-.29888-.22869-.31926-.3668-.24453-1.53967-.33963-3.08839.12-4.59636 1.30193-4.2703 3.32614-8.16475 6.19942-11.59276.91248-1.08683 2.02194-2.00157 2.68083-3.30802.16302-.32605.57737-.52303.9804-.86946 1.85666 1.12079 2.2144 3.03858 3.1948 4.63485-.10415.2785-.1698.6204-.34415.90568zm17.88048 1.43778c-.0815.21057-.15849.42114-.23774.63398-1.39249 3.70878-2.73743 7.4402-4.50578 10.99501-1.92458 3.8718-4.1186 7.56474-7.11869 10.72784-.83549.88078-1.71174 1.63703-3.0114 1.80005-.12-.28982-.24453-.49133-.28302-.70643-.67927-3.86049-.49813-7.69833.71096-11.4071 1.12305-3.4235 2.50648-6.77 3.83557-10.12557.54794-1.38343 1.31325-2.6763 1.88836-4.05067 1.05512-2.50422-.73814-5.10127-3.4167-5.29826-1.18418-.0883-1.4423 1.49212-2.64234 1.12531-.1268-.04075-.41435.3487-.59096.57285-.26944.33963-.50718.70417-.79247 1.10946-.7653-.9555-1.42872-1.81816-2.13062-2.65365-1.44684-1.71854-4.60541-2.32082-6.6183-1.30419-1.08682.54794-2.0944 1.19098-2.87328 2.13968-.76304.9306-1.47853 1.89968-2.2529 2.82347-2.68309 3.20613-4.16388 6.98736-5.1058 10.98144-.72228 3.04536-.13358 5.77827 2.42045 7.92021 1.63476 1.36759 3.80388 1.41966 5.44543.10642 1.18418-.95097 2.08308-2.1193 3.00008-3.2967 2.78725-3.58424 5.36166-7.30208 7.37454-11.38898.22642-.45511.4936-.89663.7404-1.34268.07698.02038.15623.04075.23321.0634-.60454 1.77514-1.21588 3.54802-1.80684 5.32769-1.06191 3.20612-2.28685 6.3579-2.59705 9.77913-.21963 2.37969-.13812 4.68919.64757 6.9534.74492 2.151 2.17138 3.6001 4.3971 4.2137 1.05512.29208 2.0242.21057 2.97064-.38492 1.54646-.96455 2.60838-2.4295 3.61369-3.84916 1.61664-2.28459 2.96385-4.76164 4.38578-7.18208 1.60306-2.72385 3.14952-5.46581 4.21143-8.46816.68832-1.96533 1.41514-3.91708 2.26648-5.8145h-2.1578zm4.44692 12.52788c.19472.87173.16302 1.36306-.44605 1.7593-.29661-.7155.24453-1.03022.44605-1.7593zm25.81881-12.89921c-1.24078.6136-1.67325 1.79552-2.3661 2.74875-2.21893 3.07254-4.29068 6.26055-6.68622 9.18591-2.43855 2.97518-5.296 5.57902-8.43193 7.84323-.73586.52983-1.43098 1.05965-2.34572 1.5374-1.14116.9238-1.52155 1.08003-2.83027 1.7208-.73813.57285-1.55325.71776-2.00156.70644-.45963-1.21588-.38265-1.1706-.04302-2.25969.69511-2.2461 1.35626-4.5103 2.20534-6.69754.9555-2.4612 2.1578-4.81824 3.64991-7.00773 1.38797-2.03553 2.73064-4.1005 4.2137-6.06357.9872-1.30645 1.03022-2.44082-.05207-3.63406-1.24985-1.37664-2.71027-2.0876-4.58956-1.76608-.61813.10415-1.24758.18113-1.85666.33284-1.00078.25132-1.98571.56605-2.98196.83776-1.29287.34868-1.93138.32378-3.12915-.0951.06114-.1585.10416-.32605.17888-.47322 1.06418-2.14421 2.65139-3.86728 4.422-5.43411 1.4242-1.2589 1.46042-2.8597.02717-4.1186-.38491-.33964-.76077-.69965-1.17512-1.00532-.97588-.71775-2.68083-.59322-3.28311.23095-1.27928 1.76156-2.58573 3.50274-3.79482 5.31411-.49813.74946-.79247 1.64382-1.14343 2.49063-.28302.67927-.14717 1.35853.1268 2.00836.97135 2.31856 3.0114 3.36236 5.14203 4.28163.24.10642.56152.04981.84455.02717 1.53966-.11321 3.0997-.05887 4.5737-.63172.04755-.01811.15624.12227.31247.26039-1.63024 2.39553-3.21518 4.8341-4.1888 7.61454-.48907 1.39702-1.11852 2.74876-1.68457 4.12087-.63172 1.53967-1.2023 3.1065-1.91326 4.60767-1.46947 3.08839-.29435 6.21074 1.43551 8.15343.43473.49134 1.12984.74267 1.69137 1.12532 1.9042 1.30192 2.64686-.1517 4.84088-1.53287.14491-.0883.80606-.57964.96909-.64304 2.89593-1.54646 5.07183-3.27858 7.46058-5.42958 1.52834-1.38117 2.91178-2.9299 4.32012-4.43786.66115-.71096 1.28833-1.4672 1.83854-2.26421 1.85891-2.68762 3.58198-5.4726 5.86204-7.8455.43247-.45284.85361-.9487 1.15022-1.49438.23322-.4234.26944-.9555.40303-1.48532-.45284-.31926-.81285-.57285-1.1706-.8287zm4.93599-1.04607c1.44004-2.32761 3.70425-3.78576 5.84846-5.73978-.62719 1.98571-2.6514 3.61595-5.84846 5.73978zm-5.41373 16.71895c-.97588-1.63024-1.18872-2.80084-.87399-4.35409.47096-2.32534 1.34268-4.49672 2.41365-6.6047.29661-.59096.68606-1.03022 1.2657-1.34495 1.06191-.57284 2.12383-1.15022 3.1382-1.79325 2.62874-1.67326 4.9405-3.7201 6.89905-6.14508.69285-.85813 1.16154-1.82269 1.36306-2.93442.22189-1.22946-.21058-2.16005-1.20004-2.81894-1.43324-.95097-2.9797-1.0506-4.6054-.51398-1.26117.41888-2.02421 1.46495-3.025 2.20761-3.60236 2.67856-5.89827 6.40093-8.13078 10.13235-1.01437 1.69816-1.53967 3.69746-2.22572 5.58355-1.35174 3.70878.39397 9.1678 5.11712 10.86596 2.05138.73813 4.04388.42793 5.7579-1.06645.77888-.67473 1.60985-1.29513 2.38874-1.9676 1.2589-1.08456 2.55856-2.12836 3.73368-3.30348 3.6635-3.66576 6.53-7.98135 9.69536-12.05694.09963-.1268.11774-.31472.16982-.45963-.8672-1.46948-1.37438-1.53287-2.3344-.23322-1.15702 1.57137-2.30271 3.14726-3.38953 4.77297-3.00008 4.4922-6.55943 8.40475-11.28937 11.15803-1.56683.91248-3.188 1.15928-4.86805.87626zm34.08319-5.5745c-.11321.0883-.2151.3351-.17208.45511.52756 1.41513-.81738 2.25516-1.06192 3.41443-.33963-1.81816.2151-3.50273.8989-5.01296.81058-1.79326 1.157-3.69293 1.79099-5.51789.1834-.52756.23321-1.11626.99625-1.45815.0883.85134.28982 1.64382-.1449 2.2959-.90796 1.36533-1.10042 2.98877-1.72534 4.45372-.19472.45284-.11774 1.0121-.5819 1.36984zm19.20731-10.95652c-.48454-.0634-.96908-.13133-1.45362-.19472a373.00753 373.00753 0 01-2.59026 4.542c-1.03927 1.791-2.08987 3.57067-3.17895 5.3277-1.11853 1.80458-2.34573 3.54802-3.43029 5.37524-1.36079 2.29818-3.04083 3.19028-4.81824 5.13976-.26718.29435-.60455.53662-.94644.73814-.40077.23774-.84002.39623-1.34268-.05208.06113-2.17138-.0634-3.41443.4619-5.60393 1.2589-5.27561 3.29216-10.27726 5.41147-15.24041 1.02569-2.40007 1.65287-4.89297 2.25063-7.40171.31925-1.34042-.1517-2.62196-1.24985-3.37142-1.68005-1.14569-3.51632-1.4672-5.51789-.52303-2.16458 1.0189-3.74274 2.68083-5.13976 4.4922-3.23782 4.1888-5.98431 8.7059-8.60854 13.30225-.14038.2468-.32151.47775-.66567.9872.0634-.52304.05434-.69965.11094-.85361.91474-2.59253 1.83854-5.18958 2.77366-7.77757.3487-.97362.78568-1.9178 1.0823-2.90272.37133-1.234.30793-2.54272-.80606-3.29217-1.26343-.85814-2.70347-1.61438-4.36993-.58417-.43473 1.30872-.82418 2.68762-1.34721 4.01898-1.26796 3.21518-2.18044 6.53678-2.87102 9.91272-.38718 1.9042-.57285 3.82426-.37133 5.81224.19472 1.911 1.32683 2.67856 2.85517 3.2197.47548.1653.99852.1902 1.61438.30341.47322-.65662 1.0121-1.26343 1.3789-1.95175 1.04834-1.9744 2.05139-3.96916 3.02953-5.97978.75171-1.54873 1.594-3.0182 2.708-4.36088.75171-.90568 1.24984-2.03779 1.77966-3.11103 1.00305-2.01967 2.17365-3.93746 3.70879-5.57222.74719-.79248 1.45815-1.59854 2.13062-2.45441.59775-.75625 1.30192-1.42193 2.63554-1.67325-.1132.64756-.12906 1.037-.24906 1.39249-.84229 2.55856-1.72533 5.1058-2.5495 7.67115-.37134 1.15022-.59096 2.34799-.96909 3.49594-.20151.62266-.67926 1.15702-.87398 1.77968-.7087 2.2778-1.25664 4.60993-2.04232 6.8583-.94192 2.69214-1.19324 4.43106-1.06418 7.2817.07472 1.62797.79247 2.71706 2.13515 3.4733.5502.30794 1.1321.55927 1.7208.79022 2.16912.84228 5.03335-.22643 6.02734-2.31856.48227-1.00757 1.1072-1.86118 1.9042-2.62875.49133-.47322.797-.00906 1.17512-.5751 1.72307-2.57215 3.505-5.1126 5.08316-7.77305 1.92232-3.24462 3.76086-6.53905 5.60846-9.82895-.36907.0702-.74267.11095-1.12985.11095zm6.2832-11.31427c-.11548-1.83401.19472-3.28764.8921-4.62126 1.53513-2.93895 3.13366-5.84393 4.71861-8.75571.54568-1.00531 1.2272-1.83175 2.55177-1.60986 1.43325.24001 2.61743.91022 3.22877 2.26875.38265.84908.0249 1.67551-.44832 2.43402-.91247 1.45363-1.85665 2.88688-2.71252 4.3722-.80153 1.3857-1.52155 2.81668-2.23252 4.25219-.93512 1.88156-1.8793 2.3978-3.98048 2.0627-.65436-.10642-1.30645-.25812-2.01742-.40303zm8.64023 12.07052c-.01132.02037-.0249.03849-.0385.06113-3.31933 5.28014-7.53982 9.68177-12.786 13.0781-.83097.53435-1.6891.9804-2.8982.89436-.23774-1.04154.02039-1.92458.24001-2.80763.6521-2.64007 1.9178-5.04466 3.06348-7.4719.99852-2.11477 2.31856-4.0869 3.54576-6.08847.47096-.7653.6838-1.56683.72908-2.44082.04981-.93512-.23322-1.69137-1.09588-2.16685-.35095-.19472-.677-.44152-1.03022-.62945-1.2204-.63624-1.9744-.53436-2.93215.46416-.35096.36907-.67021.79927-.8921 1.25664-1.43325 2.94348-2.90952 5.86431-4.22502 8.8576-.96456 2.19629-1.98345 4.3971-2.21667 6.85377-.12227 1.24532-.04075 2.42045.74946 3.42802.4551.58417.99625 1.1072 1.52834 1.63023 1.66193 1.64156 3.27631 1.86571 5.2824.74266.44832-.25132.92607-.47322 1.3291-.78568 2.9865-2.32987 5.88016-4.73673 8.43193-7.57605 1.94043-2.15553 3.61821-4.48994 5.22354-6.87415-.71776-.02264-1.3925-.16755-2.00836-.42567zm33.1458-1.28834c-.42793 1.00305-.7336 1.7842-.76077 2.01288-.53888.86493-.92606 1.47627-1.30645 2.09214-.1766.28982-.33963.59096-.50945.88304-2.02194 3.49594-4.59861 6.59565-7.05755 9.77687-1.54193 1.99477-3.64764 3.06348-6.03186 3.55028-1.91779-1.32909-3.25367-2.88687-3.74953-5.10353-.30115-1.33815-.70191-2.65819-1.15475-3.95332-.437-1.24531-.14491-2.23477.74719-3.13367.28076-.28302.53209-.60228.77889-.917 1.62344-2.07855 3.32839-4.08464 5.47713-5.6628 1.05965-.77889 2.22572-1.47853 3.09518-2.44082.96908-1.0687 1.89288-2.10119 3.4416-2.51328-.26491-1.00757-.88078-1.52381-1.70722-1.58494-.84002-.05887-1.76382-.03397-2.53139.26264-1.49211.57738-2.99329 1.2408-4.15256 2.40233-1.86798 1.86345-3.68388 3.77898-5.52921 5.6628-.25586.26265-.55926.47096-1.05739.8853-.03396-2.45893-.20151-4.63484-.04755-6.78584.14491-2.0559-.49133-3.36462-2.40912-4.23408-1.18418-.53888-2.26421-.40303-3.30801.00906-1.00079.40077-.64983 1.46948-.71323 2.29818-.01132.1132.0068.22868.00906.3419.1449 4.25218.50039 8.48853 1.48306 12.6343.3351 1.40381.1517 2.5246-.69059 3.70425-2.00156 2.80083-3.86275 5.70129-5.86431 8.50438-1.53514 2.14421-3.068 4.29748-5.1058 6.0364-1.03022.87625-2.10572 1.57362-3.42802 1.88382-.76757.18114-1.52155.437-2.50195.72002 2.71026 3.01593 5.83035 2.40233 7.71643.78342 2.01742-1.72986 3.76765-3.71105 5.30732-5.86205 1.77288-2.468 3.4484-5.00165 5.19637-7.48775.35095-.49586.8287-.8989 1.33815-1.44457.32151.44152.59775.72908.76077 1.07324.53436 1.11626 1.35174 1.99477 2.29138 2.7646 2.1012 1.73212 4.59636 2.56536 7.2251 3.0114.64984.11095 1.45816.0702 2.02421-.22642 1.51023-.78568 3.00914-1.5872 4.14125-2.98196.88078-1.0823 1.49664-2.30044 2.26421-3.43481 1.05739-1.56684 2.2393-3.05443 3.24462-4.65296.81738-1.30419 1.47174-2.72159 2.16911-4.1005.74946-1.48984 1.5057-2.96837 2.29818-4.43332-.4868-.05208-.96003-.16982-1.3925-.33963z"/></svg>