<?xml version="1.0" encoding="utf-8"?>
<svg id="master-artboard" viewBox="0 0 261.9306640625 85.83467102050781" version="1.1" xmlns="http://www.w3.org/2000/svg" x="0px" y="0px" style="enable-background:new 0 0 1400 980;" width="261.9306640625px" height="85.83467102050781px"><rect id="ee-background" x="0" y="0" width="261.9306640625" height="85.83467102050781" style="fill: white; fill-opacity: 0; pointer-events: none;"/><g transform="matrix(0.31052064895629883, 0, 0, 0.31052064895629883, -56.1656536958009, -95.06611763696299)"><g transform="matrix(0.7291666666666666, 0, 0, 0.7291666666666666, 0.000005090977083455073, 96.25000509097708)"><path id="Path" fill="none" stroke="black" stroke-width="1" d="M 486.19,466.55&#10;           C 486.25,466.77 486.41,466.98 486.38,467.19&#10;             486.34,467.39 486.14,467.56 486.02,467.75&#10;             485.95,467.53 485.80,467.30 485.83,467.09&#10;             485.86,466.91 486.06,466.73 486.19,466.55 Z&#10;           M 471.28,510.86&#10;           C 471.14,510.80 470.86,510.72 470.88,510.66&#10;             470.88,510.47 471.00,510.30 471.06,510.11&#10;             471.20,510.19 471.44,510.25 471.44,510.31&#10;             471.45,510.50 471.34,510.67 471.28,510.86 Z&#10;           M 588.70,449.83&#10;           C 588.42,450.19 588.20,450.70 587.83,450.88&#10;             587.52,451.02 587.02,450.75 586.61,450.67&#10;             586.84,450.30 587.02,449.72 587.34,449.59&#10;             587.72,449.45 588.23,449.73 588.70,449.83 Z&#10;           M 659.70,382.31&#10;           C 660.05,382.67 660.38,383.05 660.70,383.41&#10;             660.33,383.58 659.95,383.75 659.58,383.91&#10;             659.44,383.47 659.27,383.03 659.17,382.58&#10;             659.16,382.53 659.52,382.41 659.70,382.31 Z&#10;           M 496.33,444.31&#10;           C 496.17,444.52 496.02,444.73 495.86,444.94&#10;             495.27,444.44 494.59,443.98 494.16,443.38&#10;             494.03,443.19 494.50,442.23 494.81,442.16&#10;             495.77,441.95 496.25,442.59 496.38,443.52&#10;             496.41,443.77 496.34,444.05 496.33,444.31 Z&#10;           M 481.41,486.02&#10;           C 480.92,486.17 480.38,486.56 479.98,486.44&#10;             479.69,486.33 479.59,485.59 479.41,485.14&#10;             479.88,484.97 480.47,484.53 480.78,484.69&#10;             481.12,484.84 481.20,485.55 481.41,486.02 Z&#10;           M 485.22,472.17&#10;           C 485.19,472.66 485.27,473.19 485.06,473.58&#10;             484.86,473.97 484.38,474.22 484.02,474.52&#10;             483.86,474.12 483.58,473.70 483.59,473.31&#10;             483.62,472.84 483.86,472.34 484.09,471.91&#10;             484.19,471.75 484.55,471.59 484.75,471.64&#10;             484.94,471.69 485.06,471.98 485.22,472.17 Z&#10;           M 578.83,457.31&#10;           C 578.83,457.69 578.94,458.11 578.81,458.20&#10;             576.23,460.05 573.64,461.88 571.00,463.64&#10;             570.33,464.11 568.91,463.72 568.95,463.16&#10;             568.98,462.64 569.05,461.97 569.36,461.64&#10;             571.61,459.38 575.80,457.17 578.30,456.88&#10;             578.48,456.86 578.70,457.20 578.83,457.31 Z&#10;           M 579.59,446.50&#10;           C 578.06,449.78 575.28,451.78 572.39,453.61&#10;             571.55,454.16 570.38,454.27 569.33,454.38&#10;             569.05,454.42 568.62,453.83 568.39,453.45&#10;             568.28,453.30 568.36,452.89 568.52,452.72&#10;             568.84,452.30 569.23,451.70 569.67,451.64&#10;             573.55,451.05 576.08,448.06 579.59,446.50 Z&#10;           M 542.91,472.05&#10;           C 542.97,472.30 543.14,472.72 543.05,472.80&#10;             542.69,473.12 542.25,473.39 541.81,473.55&#10;             541.67,473.59 541.39,473.28 541.17,473.12&#10;             541.55,472.81 541.88,472.44 542.28,472.17&#10;             542.47,472.06 542.80,472.19 543.06,472.20&#10;             544.28,470.42 545.47,468.58 547.92,468.42&#10;             548.12,468.41 548.42,468.62 548.55,468.83&#10;             548.66,469.00 548.72,469.39 548.61,469.50&#10;             547.05,471.08 544.97,471.55 542.91,472.05 Z&#10;           M 556.20,463.97&#10;           C 557.25,462.80 558.30,461.61 559.38,460.45&#10;             559.42,460.39 559.88,460.55 559.97,460.72&#10;             560.09,460.89 560.11,461.23 560.02,461.42&#10;             559.11,462.89 557.83,463.78 556.05,463.80&#10;             555.34,464.91 554.70,466.06 553.89,467.09&#10;             553.69,467.38 552.95,467.38 552.48,467.30&#10;             551.72,467.17 551.50,466.08 551.97,465.38&#10;             553.03,463.78 554.56,463.72 556.20,463.97 Z&#10;           M 640.56,399.14&#10;           C 641.91,399.17 643.31,399.06 644.23,400.80&#10;             643.52,402.03 642.78,403.45 641.89,404.78&#10;             641.66,405.12 640.95,405.39 640.53,405.31&#10;             640.11,405.23 639.56,404.75 639.44,404.34&#10;             639.16,403.31 639.06,402.20 638.91,401.14&#10;             636.98,400.14 636.41,398.33 636.03,396.41&#10;             635.83,395.33 635.62,394.30 634.03,393.95&#10;             628.73,396.61 625.30,401.97 620.08,405.06&#10;             618.92,405.75 617.98,406.83 617.02,407.80&#10;             609.77,414.91 602.42,421.84 594.12,427.80&#10;             583.88,435.14 573.92,442.89 564.02,450.69&#10;             560.16,453.73 555.86,456.31 552.78,460.33&#10;             552.38,460.86 551.41,460.95 550.70,461.30&#10;             549.75,461.77 548.39,462.03 547.94,462.81&#10;             546.48,465.27 543.50,464.95 541.75,466.58&#10;             539.84,468.36 537.55,469.14 535.22,469.94&#10;             529.22,472.00 523.66,474.98 518.20,478.19&#10;             516.33,479.28 514.33,480.19 512.36,481.11&#10;             510.38,482.03 508.34,482.89 506.34,483.77&#10;             503.83,484.86 501.33,486.02 498.78,486.98&#10;             497.48,487.48 496.08,487.48 494.86,486.52&#10;             496.70,476.53 500.92,467.30 504.02,457.73&#10;             505.52,453.08 506.56,448.16 509.69,444.16&#10;             509.44,441.34 512.11,439.95 512.88,437.64&#10;             513.73,435.03 514.70,432.45 515.61,429.86&#10;             517.06,425.72 518.28,421.48 519.97,417.44&#10;             522.72,410.84 525.14,404.17 526.94,397.25&#10;             527.73,394.16 530.50,391.55 529.16,387.91&#10;             529.03,387.56 529.42,386.88 529.75,386.55&#10;             532.56,383.69 533.33,379.84 534.62,376.28&#10;             537.34,368.80 540.02,361.30 542.62,353.78&#10;             543.44,351.48 544.03,349.09 544.64,347.05&#10;             543.56,344.33 542.34,342.09 541.83,339.72&#10;             541.05,335.94 536.58,334.83 535.94,331.03&#10;             535.86,330.58 535.30,330.17 534.89,329.80&#10;             534.48,329.44 534.05,329.00 533.56,328.86&#10;             530.66,328.06 527.73,326.70 524.81,326.72&#10;             517.70,326.75 510.47,326.48 503.56,328.59&#10;             496.75,330.67 489.81,332.69 483.38,335.67&#10;             471.17,341.33 459.16,347.44 447.33,353.84&#10;             442.08,356.67 436.80,358.27 430.92,358.47&#10;             428.75,358.55 426.58,358.97 424.45,359.42&#10;             422.66,359.80 422.00,362.17 423.36,363.27&#10;             426.58,365.81 429.81,368.38 433.20,370.67&#10;             435.67,372.34 438.45,372.03 441.06,370.75&#10;             445.02,368.83 448.97,366.92 452.86,364.89&#10;             464.06,359.03 475.42,353.61 487.55,349.84&#10;             492.23,348.39 496.89,346.75 501.00,343.77&#10;             503.86,341.67 507.17,340.22 510.34,338.59&#10;             510.98,338.27 511.86,338.42 513.08,338.31&#10;             513.09,341.52 513.28,344.47 511.80,347.27&#10;             509.95,350.69 509.25,354.48 508.27,358.19&#10;             507.50,361.11 506.80,364.05 505.81,366.89&#10;             501.95,378.03 497.95,389.12 494.11,400.28&#10;             491.61,407.53 488.70,414.67 487.16,422.23&#10;             486.94,423.28 486.80,424.48 486.20,425.31&#10;             484.58,427.62 483.92,430.25 483.06,432.86&#10;             480.78,439.89 478.22,446.84 475.73,453.81&#10;             473.27,460.77 470.61,467.67 468.30,474.69&#10;             466.31,480.70 463.70,486.45 461.45,492.34&#10;             458.22,500.80 455.22,509.33 452.14,517.84&#10;             452.05,518.09 452.02,518.38 451.95,518.64&#10;             449.14,528.67 446.53,538.77 443.45,548.70&#10;             440.12,559.47 436.92,570.22 435.58,581.45&#10;             435.45,582.53 435.08,583.58 434.67,584.59&#10;             433.98,586.33 434.31,587.81 435.58,589.11&#10;             436.72,590.30 437.78,591.64 439.12,592.53&#10;             443.23,595.28 447.31,598.16 451.70,600.36&#10;             454.31,601.67 457.47,601.98 460.44,602.45&#10;             462.70,602.83 464.48,600.50 463.98,598.11&#10;             463.77,597.03 463.36,596.00 463.08,594.94&#10;             462.56,593.02 462.48,591.08 463.64,589.38&#10;             465.80,586.22 466.14,582.72 465.66,579.11&#10;             465.30,576.31 465.77,573.66 466.41,570.97&#10;             467.31,567.22 468.41,563.56 470.31,560.17&#10;             471.38,558.27 472.50,556.31 472.44,554.00&#10;             472.30,548.91 473.94,544.36 476.53,540.05&#10;             477.36,538.67 478.11,537.20 477.62,535.39&#10;             477.45,534.75 477.83,533.73 478.30,533.20&#10;             480.38,530.78 480.83,527.80 481.42,524.86&#10;             481.75,523.25 481.83,521.59 482.20,519.98&#10;             482.38,519.23 482.91,518.52 483.44,517.92&#10;             483.72,517.59 484.41,517.36 484.83,517.45&#10;             486.80,517.94 488.23,519.27 489.34,520.84&#10;             493.48,526.66 498.72,531.58 502.59,537.64&#10;             504.64,540.84 507.44,543.59 510.16,546.30&#10;             515.80,551.92 521.86,557.12 526.42,563.75&#10;             527.52,565.31 528.94,566.66 530.30,568.02&#10;             533.61,571.31 537.02,574.50 540.31,577.81&#10;             546.69,584.23 552.98,590.75 559.39,597.16&#10;             561.33,599.09 563.45,600.83 565.58,602.56&#10;             572.81,608.45 580.38,614.00 587.30,620.23&#10;             595.72,627.83 604.89,634.27 614.80,639.69&#10;             618.12,641.52 621.77,643.12 625.45,643.92&#10;             637.47,646.53 649.48,646.09 661.30,642.53&#10;             664.16,641.67 666.92,640.33 669.52,638.84&#10;             672.61,637.06 675.66,635.12 678.36,632.84&#10;             680.92,630.69 683.42,628.91 686.83,628.19&#10;             690.12,627.48 690.69,625.39 688.72,622.72&#10;             687.42,620.95 686.06,619.22 684.53,617.67&#10;             683.33,616.45 681.77,615.88 680.02,616.59&#10;             677.47,617.64 674.67,618.30 672.45,619.80&#10;             667.09,623.44 661.09,624.08 655.14,623.19&#10;             648.61,622.20 642.08,621.91 635.53,621.97&#10;             632.61,621.98 630.12,621.39 627.77,619.94&#10;             624.73,618.06 621.77,616.11 618.80,614.14&#10;             617.89,613.55 616.77,612.97 616.31,612.09&#10;             614.73,608.98 611.78,607.36 609.30,605.23&#10;             605.97,602.38 602.44,599.75 599.16,596.81&#10;             590.14,588.73 580.66,581.27 570.64,574.48&#10;             569.53,573.73 568.41,572.78 567.72,571.67&#10;             563.62,565.03 557.91,559.88 552.44,554.48&#10;             548.73,550.81 544.95,547.22 541.31,543.47&#10;             535.39,537.36 529.59,531.12 523.67,525.02&#10;             518.89,520.08 514.50,514.83 510.34,508.95&#10;             511.38,508.23 512.16,507.45 513.11,507.06&#10;             515.62,506.02 518.27,505.25 520.78,504.17&#10;             528.09,501.03 535.27,497.58 542.66,494.66&#10;             547.83,492.61 552.52,489.94 557.02,486.72&#10;             564.59,481.31 571.95,475.58 580.09,470.98&#10;             582.97,469.36 585.66,467.50 587.98,465.09&#10;             590.27,462.72 593.03,460.95 595.89,459.23&#10;             600.08,456.69 604.08,453.77 607.92,450.70&#10;             616.06,444.20 624.02,437.45 632.12,430.92&#10;             639.20,425.22 646.08,419.30 651.97,412.41&#10;             655.73,407.98 660.05,404.27 664.23,400.34&#10;             666.23,398.47 668.23,396.55 669.88,394.39&#10;             675.02,387.64 680.67,381.28 684.86,373.83&#10;             685.67,372.41 686.56,370.97 687.69,369.78&#10;             691.14,366.14 693.42,361.78 695.69,357.38&#10;             698.19,352.50 700.86,347.72 703.28,342.80&#10;             705.20,338.88 706.97,334.89 707.70,330.48&#10;             708.14,327.83 708.33,325.05 709.94,322.62&#10;             711.64,320.05 710.92,317.44 709.59,314.83&#10;             707.95,311.61 706.31,308.53 702.83,306.84&#10;             701.64,306.25 700.78,305.02 699.66,304.25&#10;             697.12,302.53 694.34,301.39 691.28,301.02&#10;             689.44,300.78 687.70,302.03 688.19,303.77&#10;             688.92,306.42 688.19,308.55 687.06,310.84&#10;             685.61,313.78 684.03,316.80 683.39,319.95&#10;             682.83,322.70 681.80,325.20 680.81,327.72&#10;             679.19,331.81 677.31,335.78 675.44,339.77&#10;             673.23,344.47 671.33,349.34 667.14,352.86&#10;             666.14,353.69 665.69,355.16 664.98,356.33&#10;             664.12,357.73 663.44,359.27 662.41,360.53&#10;             657.73,366.23 654.19,372.91 648.20,377.52&#10;             646.44,381.39 642.98,383.72 640.00,386.48&#10;             639.20,387.22 638.56,388.16 638.02,389.09&#10;             637.80,389.48 637.80,390.30 638.06,390.61&#10;             638.56,391.17 639.30,391.84 639.98,391.89&#10;             641.42,391.98 642.69,391.33 643.27,389.91&#10;             643.95,388.19 644.41,386.31 646.64,385.81&#10;             647.66,387.12 648.61,388.38 649.55,389.61&#10;             650.55,389.17 651.27,388.72 652.06,388.56&#10;             652.80,388.41 653.95,388.25 654.33,388.66&#10;             655.39,389.83 654.28,390.47 653.33,390.98&#10;             651.14,392.19 651.14,394.64 650.12,396.52&#10;             649.45,397.73 647.95,398.19 646.58,397.48&#10;             646.11,397.25 645.72,396.83 645.36,396.42&#10;             644.36,395.28 643.36,395.78 642.56,396.55&#10;             641.78,397.28 641.22,398.27 640.56,399.14 Z&#10;           M 732.28,469.88&#10;           C 721.67,487.42 711.33,505.16 698.33,521.11&#10;             694.98,525.20 691.22,529.02 687.34,532.62&#10;             684.56,535.20 681.23,537.16 677.02,536.98&#10;             676.55,536.45 675.70,535.97 675.61,535.36&#10;             674.53,528.56 674.11,521.72 676.14,515.06&#10;             681.89,496.20 690.83,479.00 703.52,463.86&#10;             707.55,459.06 712.45,455.02 715.36,449.25&#10;             716.08,447.81 717.91,446.94 719.69,445.41&#10;             727.89,450.36 729.47,458.83 733.80,465.88&#10;             733.34,467.11 733.05,468.62 732.28,469.88 Z&#10;           M 811.25,476.23&#10;           C 810.89,477.16 810.55,478.09 810.20,479.03&#10;             804.05,495.41 798.11,511.89 790.30,527.59&#10;             781.80,544.69 772.11,561.00 758.86,574.97&#10;             755.17,578.86 751.30,582.20 745.56,582.92&#10;             745.03,581.64 744.48,580.75 744.31,579.80&#10;             741.31,562.75 742.11,545.80 747.45,529.42&#10;             752.41,514.30 758.52,499.52 764.39,484.70&#10;             766.81,478.59 770.19,472.88 772.73,466.81&#10;             777.39,455.75 769.47,444.28 757.64,443.41&#10;             752.41,443.02 751.27,450.00 745.97,448.38&#10;             745.41,448.20 744.14,449.92 743.36,450.91&#10;             742.17,452.41 741.12,454.02 739.86,455.81&#10;             736.48,451.59 733.55,447.78 730.45,444.09&#10;             724.06,436.50 710.11,433.84 701.22,438.33&#10;             696.42,440.75 691.97,443.59 688.53,447.78&#10;             685.16,451.89 682.00,456.17 678.58,460.25&#10;             666.73,474.41 660.19,491.11 656.03,508.75&#10;             652.84,522.20 655.44,534.27 666.72,543.73&#10;             673.94,549.77 683.52,550.00 690.77,544.20&#10;             696.00,540.00 699.97,534.84 704.02,529.64&#10;             716.33,513.81 727.70,497.39 736.59,479.34&#10;             737.59,477.33 738.77,475.38 739.86,473.41&#10;             740.20,473.50 740.55,473.59 740.89,473.69&#10;             738.22,481.53 735.52,489.36 732.91,497.22&#10;             728.22,511.38 722.81,525.30 721.44,540.41&#10;             720.47,550.92 720.83,561.12 724.30,571.12&#10;             727.59,580.62 733.89,587.02 743.72,589.73&#10;             748.38,591.02 752.66,590.66 756.84,588.03&#10;             763.67,583.77 768.36,577.30 772.80,571.03&#10;             779.94,560.94 785.89,550.00 792.17,539.31&#10;             799.25,527.28 806.08,515.17 810.77,501.91&#10;             813.81,493.23 817.02,484.61 820.78,476.23&#10;             820.78,476.23 811.25,476.23 811.25,476.23 Z&#10;           M 830.89,531.56&#10;           C 831.75,535.41 831.61,537.58 828.92,539.33&#10;             827.61,536.17 830.00,534.78 830.89,531.56 Z&#10;           M 944.92,474.59&#10;           C 939.44,477.30 937.53,482.52 934.47,486.73&#10;             924.67,500.30 915.52,514.38 904.94,527.30&#10;             894.17,540.44 881.55,551.94 867.70,561.94&#10;             864.45,564.28 861.38,566.62 857.34,568.73&#10;             852.30,572.81 850.62,573.50 844.84,576.33&#10;             841.58,578.86 837.98,579.50 836.00,579.45&#10;             833.97,574.08 834.31,574.28 835.81,569.47&#10;             838.88,559.55 841.80,549.55 845.55,539.89&#10;             849.77,529.02 855.08,518.61 861.67,508.94&#10;             867.80,499.95 873.73,490.83 880.28,482.16&#10;             884.64,476.39 884.83,471.38 880.05,466.11&#10;             874.53,460.03 868.08,456.89 859.78,458.31&#10;             857.05,458.77 854.27,459.11 851.58,459.78&#10;             847.16,460.89 842.81,462.28 838.41,463.48&#10;             832.70,465.02 829.88,464.91 824.59,463.06&#10;             824.86,462.36 825.05,461.62 825.38,460.97&#10;             830.08,451.50 837.09,443.89 844.91,436.97&#10;             851.20,431.41 851.36,424.34 845.03,418.78&#10;             843.33,417.28 841.67,415.69 839.84,414.34&#10;             835.53,411.17 828.00,411.72 825.34,415.36&#10;             819.69,423.14 813.92,430.83 808.58,438.83&#10;             806.38,442.14 805.08,446.09 803.53,449.83&#10;             802.28,452.83 802.88,455.83 804.09,458.70&#10;             808.38,468.94 817.39,473.55 826.80,477.61&#10;             827.86,478.08 829.28,477.83 830.53,477.73&#10;             837.33,477.23 844.22,477.47 850.73,474.94&#10;             850.94,474.86 851.42,475.48 852.11,476.09&#10;             844.91,486.67 837.91,497.44 833.61,509.72&#10;             831.45,515.89 828.67,521.86 826.17,527.92&#10;             823.38,534.72 820.86,541.64 817.72,548.27&#10;             811.23,561.91 816.42,575.70 824.06,584.28&#10;             825.98,586.45 829.05,587.56 831.53,589.25&#10;             839.94,595.00 843.22,588.58 852.91,582.48&#10;             853.55,582.09 856.47,579.92 857.19,579.64&#10;             869.98,572.81 879.59,565.16 890.14,555.66&#10;             896.89,549.56 903.00,542.72 909.22,536.06&#10;             912.14,532.92 914.91,529.58 917.34,526.06&#10;             925.55,514.19 933.16,501.89 943.23,491.41&#10;             945.14,489.41 947.00,487.22 948.31,484.81&#10;             949.34,482.94 949.50,480.59 950.09,478.25&#10;             948.09,476.84 946.50,475.72 944.92,474.59 Z&#10;           M 966.72,469.97&#10;           C 973.08,459.69 983.08,453.25 992.55,444.62&#10;             989.78,453.39 980.84,460.59 966.72,469.97 Z&#10;           M 942.81,543.81&#10;           C 938.50,536.61 937.56,531.44 938.95,524.58&#10;             941.03,514.31 944.88,504.72 949.61,495.41&#10;             950.92,492.80 952.64,490.86 955.20,489.47&#10;             959.89,486.94 964.58,484.39 969.06,481.55&#10;             980.67,474.16 990.88,465.12 999.53,454.41&#10;             1002.59,450.62 1004.66,446.36 1005.55,441.45&#10;             1006.53,436.02 1004.62,431.91 1000.25,429.00&#10;             993.92,424.80 987.09,424.36 979.91,426.73&#10;             974.34,428.58 970.97,433.20 966.55,436.48&#10;             950.64,448.31 940.50,464.75 930.64,481.23&#10;             926.16,488.73 923.84,497.56 920.81,505.89&#10;             914.84,522.27 922.55,546.38 943.41,553.88&#10;             952.47,557.14 961.27,555.77 968.84,549.17&#10;             972.28,546.19 975.95,543.45 979.39,540.48&#10;             984.95,535.69 990.69,531.08 995.88,525.89&#10;             1012.06,509.70 1024.72,490.64 1038.70,472.64&#10;             1039.14,472.08 1039.22,471.25 1039.45,470.61&#10;             1035.62,464.12 1033.38,463.84 1029.14,469.58&#10;             1024.03,476.52 1018.97,483.48 1014.17,490.66&#10;             1000.92,510.50 985.20,527.78 964.31,539.94&#10;             957.39,543.97 950.23,545.06 942.81,543.81 Z&#10;           M 1093.34,519.19&#10;           C 1092.84,519.58 1092.39,520.67 1092.58,521.20&#10;             1094.91,527.45 1088.97,531.16 1087.89,536.28&#10;             1086.39,528.25 1088.84,520.81 1091.86,514.14&#10;             1095.44,506.22 1096.97,497.83 1099.77,489.77&#10;             1100.58,487.44 1100.80,484.84 1104.17,483.33&#10;             1104.56,487.09 1105.45,490.59 1103.53,493.47&#10;             1099.52,499.50 1098.67,506.67 1095.91,513.14&#10;             1095.05,515.14 1095.39,517.61 1093.34,519.19 Z&#10;           M 1178.17,470.80&#10;           C 1176.03,470.52 1173.89,470.22 1171.75,469.94&#10;             1167.98,476.66 1164.17,483.34 1160.31,490.00&#10;             1155.72,497.91 1151.08,505.77 1146.27,513.53&#10;             1141.33,521.50 1135.91,529.20 1131.12,537.27&#10;             1125.11,547.42 1117.69,551.36 1109.84,559.97&#10;             1108.66,561.27 1107.17,562.34 1105.66,563.23&#10;             1103.89,564.28 1101.95,564.98 1099.73,563.00&#10;             1100.00,553.41 1099.45,547.92 1101.77,538.25&#10;             1107.33,514.95 1116.31,492.86 1125.67,470.94&#10;             1130.20,460.34 1132.97,449.33 1135.61,438.25&#10;             1137.02,432.33 1134.94,426.67 1130.09,423.36&#10;             1122.67,418.30 1114.56,416.88 1105.72,421.05&#10;             1096.16,425.55 1089.19,432.89 1083.02,440.89&#10;             1068.72,459.39 1056.59,479.34 1045.00,499.64&#10;             1044.38,500.73 1043.58,501.75 1042.06,504.00&#10;             1042.34,501.69 1042.30,500.91 1042.55,500.23&#10;             1046.59,488.78 1050.67,477.31 1054.80,465.88&#10;             1056.34,461.58 1058.27,457.41 1059.58,453.06&#10;             1061.22,447.61 1060.94,441.83 1056.02,438.52&#10;             1050.44,434.73 1044.08,431.39 1036.72,435.94&#10;             1034.80,441.72 1033.08,447.81 1030.77,453.69&#10;             1025.17,467.89 1021.14,482.56 1018.09,497.47&#10;             1016.38,505.88 1015.56,514.36 1016.45,523.14&#10;             1017.31,531.58 1022.31,534.97 1029.06,537.36&#10;             1031.16,538.09 1033.47,538.20 1036.19,538.70&#10;             1038.28,535.80 1040.66,533.12 1042.28,530.08&#10;             1046.91,521.36 1051.34,512.55 1055.66,503.67&#10;             1058.98,496.83 1062.70,490.34 1067.62,484.41&#10;             1070.94,480.41 1073.14,475.41 1075.48,470.67&#10;             1079.91,461.75 1085.08,453.28 1091.86,446.06&#10;             1095.16,442.56 1098.30,439.00 1101.27,435.22&#10;             1103.91,431.88 1107.02,428.94 1112.91,427.83&#10;             1112.41,430.69 1112.34,432.41 1111.81,433.98&#10;             1108.09,445.28 1104.19,456.53 1100.55,467.86&#10;             1098.91,472.94 1097.94,478.23 1096.27,483.30&#10;             1095.38,486.05 1093.27,488.41 1092.41,491.16&#10;             1089.28,501.22 1086.86,511.52 1083.39,521.45&#10;             1079.23,533.34 1078.12,541.02 1078.69,553.61&#10;             1079.02,560.80 1082.19,565.61 1088.12,568.95&#10;             1090.55,570.31 1093.12,571.42 1095.72,572.44&#10;             1105.30,576.16 1117.95,571.44 1122.34,562.20&#10;             1124.47,557.75 1127.23,553.98 1130.75,550.59&#10;             1132.92,548.50 1134.27,550.55 1135.94,548.05&#10;             1143.55,536.69 1151.42,525.47 1158.39,513.72&#10;             1166.88,499.39 1175.00,484.84 1183.16,470.31&#10;             1181.53,470.62 1179.88,470.80 1178.17,470.80 Z&#10;           M 1205.92,420.83&#10;           C 1205.41,412.73 1206.78,406.31 1209.86,400.42&#10;             1216.64,387.44 1223.70,374.61 1230.70,361.75&#10;             1233.11,357.31 1236.12,353.66 1241.97,354.64&#10;             1248.30,355.70 1253.53,358.66 1256.23,364.66&#10;             1257.92,368.41 1256.34,372.06 1254.25,375.41&#10;             1250.22,381.83 1246.05,388.16 1242.27,394.72&#10;             1238.73,400.84 1235.55,407.16 1232.41,413.50&#10;             1228.28,421.81 1224.11,424.09 1214.83,422.61&#10;             1211.94,422.14 1209.06,421.47 1205.92,420.83 Z&#10;           M 1244.08,474.14&#10;           C 1244.03,474.23 1243.97,474.31 1243.91,474.41&#10;             1229.25,497.73 1210.61,517.17 1187.44,532.17&#10;             1183.77,534.53 1179.98,536.50 1174.64,536.12&#10;             1173.59,531.52 1174.73,527.62 1175.70,523.72&#10;             1178.58,512.06 1184.17,501.44 1189.23,490.72&#10;             1193.64,481.38 1199.47,472.67 1204.89,463.83&#10;             1206.97,460.45 1207.91,456.91 1208.11,453.05&#10;             1208.33,448.92 1207.08,445.58 1203.27,443.48&#10;             1201.72,442.62 1200.28,441.53 1198.72,440.70&#10;             1193.33,437.89 1190.00,438.34 1185.77,442.75&#10;             1184.22,444.38 1182.81,446.28 1181.83,448.30&#10;             1175.50,461.30 1168.98,474.20 1163.17,487.42&#10;             1158.91,497.12 1154.41,506.84 1153.38,517.69&#10;             1152.84,523.19 1153.20,528.38 1156.69,532.83&#10;             1158.70,535.41 1161.09,537.72 1163.44,540.03&#10;             1170.78,547.28 1177.91,548.27 1186.77,543.31&#10;             1188.75,542.20 1190.86,541.22 1192.64,539.84&#10;             1205.83,529.55 1218.61,518.92 1229.88,506.38&#10;             1238.45,496.86 1245.86,486.55 1252.95,476.02&#10;             1249.78,475.92 1246.80,475.28 1244.08,474.14 Z&#10;           M 1390.47,468.45&#10;           C 1388.58,472.88 1387.23,476.33 1387.11,477.34&#10;             1384.73,481.16 1383.02,483.86 1381.34,486.58&#10;             1380.56,487.86 1379.84,489.19 1379.09,490.48&#10;             1370.16,505.92 1358.78,519.61 1347.92,533.66&#10;             1341.11,542.47 1331.81,547.19 1321.28,549.34&#10;             1312.81,543.47 1306.91,536.59 1304.72,526.80&#10;             1303.39,520.89 1301.62,515.06 1299.62,509.34&#10;             1297.69,503.84 1298.98,499.47 1302.92,495.50&#10;             1304.16,494.25 1305.27,492.84 1306.36,491.45&#10;             1313.53,482.27 1321.06,473.41 1330.55,466.44&#10;             1335.23,463.00 1340.38,459.91 1344.22,455.66&#10;             1348.50,450.94 1352.58,446.38 1359.42,444.56&#10;             1358.25,440.11 1355.53,437.83 1351.88,437.56&#10;             1348.17,437.30 1344.09,437.41 1340.70,438.72&#10;             1334.11,441.27 1327.48,444.20 1322.36,449.33&#10;             1314.11,457.56 1306.09,466.02 1297.94,474.34&#10;             1296.81,475.50 1295.47,476.42 1293.27,478.25&#10;             1293.12,467.39 1292.38,457.78 1293.06,448.28&#10;             1293.70,439.20 1290.89,433.42 1282.42,429.58&#10;             1277.19,427.20 1272.42,427.80 1267.81,429.62&#10;             1263.39,431.39 1264.94,436.11 1264.66,439.77&#10;             1264.61,440.27 1264.69,440.78 1264.70,441.28&#10;             1265.34,460.06 1266.91,478.77 1271.25,497.08&#10;             1272.73,503.28 1271.92,508.23 1268.20,513.44&#10;             1259.36,525.81 1251.14,538.62 1242.30,551.00&#10;             1235.52,560.47 1228.75,569.98 1219.75,577.66&#10;             1215.20,581.53 1210.45,584.61 1204.61,585.98&#10;             1201.22,586.78 1197.89,587.91 1193.56,589.16&#10;             1205.53,602.48 1219.31,599.77 1227.64,592.62&#10;             1236.55,584.98 1244.28,576.23 1251.08,566.73&#10;             1258.91,555.83 1266.31,544.64 1274.03,533.66&#10;             1275.58,531.47 1277.69,529.69 1279.94,527.28&#10;             1281.36,529.23 1282.58,530.50 1283.30,532.02&#10;             1285.66,536.95 1289.27,540.83 1293.42,544.23&#10;             1302.70,551.88 1313.72,555.56 1325.33,557.53&#10;             1328.20,558.02 1331.77,557.84 1334.27,556.53&#10;             1340.94,553.06 1347.56,549.52 1352.56,543.36&#10;             1356.45,538.58 1359.17,533.20 1362.56,528.19&#10;             1367.23,521.27 1372.45,514.70 1376.89,507.64&#10;             1380.50,501.88 1383.39,495.62 1386.47,489.53&#10;             1389.78,482.95 1393.12,476.42 1396.62,469.95&#10;             1394.47,469.72 1392.38,469.20 1390.47,468.45 Z" style="fill-opacity: 1; fill: rgb(255, 255, 255); stroke-width: 0;"/></g></g></svg>