<?xml version="1.0" encoding="UTF-8" standalone="no"?>
<svg
   xmlns:dc="http://purl.org/dc/elements/1.1/"
   xmlns:cc="http://creativecommons.org/ns#"
   xmlns:rdf="http://www.w3.org/1999/02/22-rdf-syntax-ns#"
   xmlns:svg="http://www.w3.org/2000/svg"
   xmlns="http://www.w3.org/2000/svg"
   xmlns:sodipodi="http://sodipodi.sourceforge.net/DTD/sodipodi-0.dtd"
   xmlns:inkscape="http://www.inkscape.org/namespaces/inkscape"
   sodipodi:docname="karenix-k.svg"
   inkscape:version="1.0 (4035a4fb49, 2020-05-01)"
   id="svg8"
   version="1.1"
   viewBox="0 0 210 297"
   height="297mm"
   width="210mm">
  <defs
     id="defs2">
    <rect
       id="rect26"
       height="24.757441"
       width="22.300595"
       y="94.021578"
       x="86.178572" />
  </defs>
  <sodipodi:namedview
     inkscape:window-maximized="0"
     inkscape:window-y="0"
     inkscape:window-x="192"
     inkscape:window-height="1041"
     inkscape:window-width="1274"
     showgrid="false"
     inkscape:document-rotation="0"
     inkscape:current-layer="layer1"
     inkscape:document-units="mm"
     inkscape:cy="381.40989"
     inkscape:cx="351.00941"
     inkscape:zoom="3.959798"
     inkscape:pageshadow="2"
     inkscape:pageopacity="0.0"
     borderopacity="1.0"
     bordercolor="#666666"
     pagecolor="#ffffff"
     id="base" />
  <metadata
     id="metadata5">
    <rdf:RDF>
      <cc:Work
         rdf:about="">
        <dc:format>image/svg+xml</dc:format>
        <dc:type
           rdf:resource="http://purl.org/dc/dcmitype/StillImage" />
        <dc:title></dc:title>
      </cc:Work>
    </rdf:RDF>
  </metadata>
  <g
     id="layer1"
     inkscape:groupmode="layer"
     inkscape:label="Layer 1">
    <g
       style="font-style:normal;font-variant:normal;font-weight:normal;font-stretch:normal;font-size:10.5833px;line-height:1.25;font-family:Vincentia;-inkscape-font-specification:'Vincentia, Normal';font-variant-ligatures:normal;font-variant-caps:normal;font-variant-numeric:normal;font-variant-east-asian:normal;fill:#000000;fill-opacity:1;stroke:none;stroke-width:0.264583"
       id="text22"
       aria-label="K">
      <path
         id="path30"
         style="font-style:normal;font-variant:normal;font-weight:normal;font-stretch:normal;font-size:10.5833px;font-family:Vincentia;-inkscape-font-specification:'Vincentia, Normal';font-variant-ligatures:normal;font-variant-caps:normal;font-variant-numeric:normal;font-variant-east-asian:normal;stroke-width:0.264583"
         d="m 91.651664,103.08621 c 0,0.0106 0.01058,0.0106 0,0.0212 0,0 0,0.0106 0,0.0106 -0.01058,0 -0.01058,-0.0106 -0.01058,-0.0106 0,-0.0106 0.01058,-0.0106 0.01058,-0.0212 z m -0.391582,1.17475 c -0.01058,0 -0.01058,0 -0.01058,0 0,-0.0106 0,-0.0106 0,-0.0212 0.01058,0 0.01058,0.0106 0.01058,0.0106 0,0 0,0.0106 0,0.0106 z m 3.100907,-1.60866 c 0,0 -0.01058,0.0212 -0.02117,0.0212 -0.01058,0.0106 -0.02117,0 -0.03175,0 0.01058,-0.0106 0.01058,-0.0317 0.02117,-0.0317 0.01058,0 0.02117,0 0.03175,0.0106 z m 1.883827,-1.78858 c 0.01058,0.0106 0.01058,0.0212 0.02117,0.0318 -0.01058,0 -0.02117,0 -0.03175,0.0106 0,-0.0106 0,-0.0212 -0.01058,-0.0423 0,0 0.01058,0 0.02117,0 z m -4.32857,1.64041 c 0,0 0,0.0106 -0.01058,0.0106 -0.01058,-0.0106 -0.03175,-0.0212 -0.04233,-0.0423 0,0 0.01058,-0.0212 0.02117,-0.0318 0.02117,0 0.03175,0.0106 0.03175,0.0423 0.01058,0 0,0.0106 0,0.0212 z m -0.391582,1.10067 c -0.01058,0 -0.03175,0.0106 -0.04233,0.0106 0,0 0,-0.0212 -0.01058,-0.0318 0.01058,-0.0106 0.03175,-0.0212 0.03175,-0.0106 0.01058,0 0.02117,0.0212 0.02117,0.0318 z m 0.105833,-0.37042 c -0.01058,0.0212 0,0.0318 -0.01058,0.0423 0,0.0106 -0.02117,0.0212 -0.02117,0.0212 -0.01058,-0.0106 -0.02117,-0.0212 -0.01058,-0.0318 0,-0.0106 0,-0.0212 0.01058,-0.0318 0,-0.0106 0.01058,-0.0106 0.01058,-0.0106 0.01058,0 0.01058,0.0106 0.02117,0.0106 z m 2.476492,-0.39158 c 0,0.0106 0,0.0212 0,0.0212 -0.07408,0.0529 -0.137583,0.10583 -0.211666,0.14816 -0.02117,0.0106 -0.05292,0 -0.05292,-0.0106 0,-0.0106 0,-0.0317 0.01058,-0.0423 0.0635,-0.0635 0.169333,-0.11642 0.232833,-0.127 0.01058,0 0.01058,0.0106 0.02117,0.0106 z m 0.02117,-0.28575 c -0.04233,0.0847 -0.116416,0.13758 -0.190499,0.1905 -0.03175,0.0106 -0.0635,0.0212 -0.08467,0.0212 -0.01058,0 -0.02117,-0.0106 -0.03175,-0.0212 0,-0.0106 0,-0.0212 0.01058,-0.0212 0.01058,-0.0106 0.02117,-0.0318 0.03175,-0.0318 0.09525,-0.0106 0.169333,-0.0953 0.264583,-0.13758 z m -0.973664,0.67733 c 0,0.0106 0,0.0212 0,0.0212 -0.01058,0.0106 -0.02117,0.0106 -0.03175,0.0212 0,0 -0.01058,-0.0106 -0.02117,-0.0106 0.01058,-0.0106 0.02117,-0.0212 0.03175,-0.0318 0.01058,0 0.02117,0 0.02117,0 0.03175,-0.0423 0.0635,-0.0953 0.127,-0.0953 0.01058,0 0.02117,0.0106 0.02117,0.0106 0,0 0,0.0106 0,0.0212 -0.04233,0.0423 -0.09525,0.0529 -0.148167,0.0635 z m 0.349249,-0.21167 c 0.03175,-0.0318 0.05292,-0.0635 0.08467,-0.0952 0,0 0.01058,0 0.01058,0.0106 0.01058,0 0.01058,0.0106 0.01058,0.0212 -0.03175,0.0317 -0.0635,0.0529 -0.105833,0.0529 -0.02117,0.0318 -0.04233,0.0635 -0.0635,0.0953 0,0 -0.02117,0 -0.03175,0 -0.02117,0 -0.03175,-0.0318 -0.02117,-0.0529 0.03175,-0.0423 0.07408,-0.0423 0.116416,-0.0318 z m 2.233076,-1.71449 c 0.03175,0 0.07408,0 0.09525,0.0423 -0.02117,0.0318 -0.04233,0.0741 -0.0635,0.10584 0,0.0106 -0.02117,0.0106 -0.03175,0.0106 -0.01058,0 -0.03175,-0.0106 -0.03175,-0.0212 -0.01058,-0.0318 -0.01058,-0.0635 -0.01058,-0.0847 -0.05292,-0.0318 -0.0635,-0.0741 -0.07408,-0.127 -0.01058,-0.0318 -0.01058,-0.0529 -0.05292,-0.0635 -0.148167,0.0635 -0.232833,0.21166 -0.370416,0.29633 -0.03175,0.0106 -0.05292,0.0423 -0.08467,0.0635 -0.1905,0.1905 -0.380999,0.381 -0.603248,0.52916 -0.275166,0.20109 -0.539749,0.40217 -0.793748,0.61384 -0.105833,0.0741 -0.222249,0.14816 -0.306915,0.254 -0.01058,0.0106 -0.03175,0.0106 -0.05292,0.0212 -0.02117,0.0106 -0.05292,0.0212 -0.07408,0.0423 -0.03175,0.0635 -0.116416,0.0529 -0.15875,0.0952 -0.05292,0.0529 -0.116416,0.0741 -0.169332,0.0953 -0.15875,0.0529 -0.306916,0.127 -0.455082,0.21167 -0.05292,0.0318 -0.105833,0.0529 -0.15875,0.0847 -0.05292,0.0212 -0.105833,0.0423 -0.158749,0.0635 -0.0635,0.0317 -0.127,0.0635 -0.201083,0.0847 -0.03175,0.0212 -0.0635,0.0212 -0.09525,-0.0106 0.04233,-0.26458 0.15875,-0.508 0.243416,-0.762 0.03175,-0.11641 0.0635,-0.254 0.148166,-0.35983 -0.01058,-0.0741 0.0635,-0.10583 0.08467,-0.16933 0.02117,-0.0635 0.04233,-0.13759 0.07408,-0.20109 0.03175,-0.11641 0.0635,-0.22224 0.105833,-0.32808 0.07408,-0.17991 0.137583,-0.35983 0.190499,-0.53975 0.02117,-0.0847 0.09525,-0.14816 0.05292,-0.24341 0,-0.0106 0.01058,-0.0317 0.02117,-0.0423 0.07408,-0.0741 0.09525,-0.16933 0.127,-0.26458 0.07408,-0.20108 0.148166,-0.40216 0.211666,-0.60325 0.02117,-0.0529 0.04233,-0.116412 0.05292,-0.169329 -0.03175,-0.07408 -0.0635,-0.137583 -0.07408,-0.201082 -0.02117,-0.09525 -0.137582,-0.127 -0.158749,-0.22225 0,-0.02117 -0.01058,-0.03175 -0.02117,-0.04233 -0.01058,0 -0.02117,-0.02117 -0.04233,-0.02117 -0.07408,-0.02117 -0.148166,-0.05292 -0.222249,-0.05292 -0.1905,0 -0.380999,-0.01058 -0.571498,0.04233 -0.179916,0.0635 -0.359832,0.116417 -0.529165,0.1905 -0.328083,0.148166 -0.645582,0.317499 -0.952497,0.486834 -0.137583,0.0741 -0.275166,0.11641 -0.433916,0.11641 -0.0635,0 -0.116416,0.0106 -0.169332,0.0318 -0.05292,0 -0.0635,0.0635 -0.03175,0.0953 0.08467,0.0741 0.169333,0.13759 0.264582,0.20109 0.0635,0.0423 0.137583,0.0318 0.201083,0 0.105833,-0.0529 0.211666,-0.10584 0.317499,-0.15875 0.296332,-0.14817 0.592665,-0.29634 0.910164,-0.39159 0.126999,-0.04233 0.253999,-0.08466 0.359832,-0.169328 0.07408,-0.05292 0.158749,-0.08467 0.243416,-0.137583 0.02117,0 0.04233,0 0.07408,0 0,0.08467 0.01058,0.158749 -0.03175,0.232832 -0.05292,0.09525 -0.0635,0.190499 -0.09525,0.285749 -0.02117,0.0847 -0.03175,0.15875 -0.0635,0.23283 -0.105833,0.29634 -0.211666,0.59267 -0.306916,0.889 -0.0635,0.1905 -0.148166,0.381 -0.1905,0.58208 0,0.0212 0,0.0529 -0.02117,0.0741 -0.04233,0.0635 -0.0635,0.13759 -0.08467,0.20109 -0.0635,0.1905 -0.126999,0.37041 -0.190499,0.55033 -0.0635,0.1905 -0.137583,0.37041 -0.201083,0.56091 -0.05292,0.15875 -0.116416,0.30692 -0.179916,0.46567 -0.08467,0.22225 -0.158749,0.4445 -0.243416,0.67733 0,0 0,0.0106 -0.01058,0.0212 -0.07408,0.26458 -0.137583,0.52916 -0.222249,0.79374 -0.08467,0.28575 -0.169333,0.5715 -0.211666,0.86783 0,0.0212 -0.01058,0.0529 -0.02117,0.0741 -0.02117,0.0529 -0.01058,0.0952 0.02117,0.127 0.03175,0.0318 0.0635,0.0635 0.09525,0.0847 0.116417,0.0741 0.22225,0.14817 0.338666,0.21167 0.0635,0.0318 0.148166,0.0423 0.232833,0.0529 0.05292,0.0106 0.105833,-0.0529 0.09525,-0.11642 -0.01058,-0.0212 -0.02117,-0.0529 -0.03175,-0.0847 -0.01058,-0.0423 -0.01058,-0.0953 0.02117,-0.14816 0.05292,-0.0741 0.0635,-0.16934 0.05292,-0.26458 -0.01058,-0.0741 0,-0.14817 0.02117,-0.22225 0.02117,-0.0953 0.05292,-0.1905 0.09525,-0.28575 0.03175,-0.0423 0.0635,-0.0952 0.0635,-0.15875 -0.01058,-0.13759 0.03175,-0.254 0.105833,-0.37042 0.02117,-0.0318 0.04233,-0.0741 0.03175,-0.127 -0.01058,-0.0106 0,-0.0423 0.01058,-0.0529 0.05292,-0.0635 0.07408,-0.14817 0.08467,-0.22225 0.01058,-0.0423 0.01058,-0.0847 0.02117,-0.127 0,-0.0212 0.02117,-0.0423 0.03175,-0.0529 0.01058,-0.0106 0.03175,-0.0212 0.04233,-0.0106 0.04233,0.0106 0.08467,0.0423 0.116416,0.0847 0.105833,0.15875 0.243416,0.28575 0.349249,0.4445 0.05292,0.0847 0.127,0.15875 0.201083,0.23283 0.148166,0.14817 0.306915,0.28575 0.433915,0.45509 0.02117,0.0423 0.0635,0.0847 0.09525,0.11641 0.09525,0.0847 0.179916,0.16934 0.264582,0.26459 0.169333,0.16933 0.338666,0.33866 0.507999,0.50799 0.05292,0.0529 0.105833,0.0953 0.158749,0.13759 0.201083,0.15875 0.391582,0.30691 0.582082,0.47624 0.222249,0.20109 0.465665,0.37042 0.730247,0.508 0.08467,0.0529 0.179916,0.0953 0.275166,0.11642 0.317499,0.0635 0.634998,0.0529 0.952497,-0.0423 0.07408,-0.0212 0.148166,-0.0529 0.211666,-0.0952 0.08467,-0.0423 0.169333,-0.0953 0.232833,-0.15875 0.07408,-0.0529 0.137583,-0.10584 0.232832,-0.127 0.08467,-0.0106 0.09525,-0.0741 0.04233,-0.13759 -0.03175,-0.0529 -0.0635,-0.0952 -0.105833,-0.13758 -0.03175,-0.0317 -0.07408,-0.0423 -0.116416,-0.0317 -0.07408,0.0317 -0.148166,0.0529 -0.201083,0.0847 -0.148166,0.10583 -0.306915,0.11641 -0.465665,0.0953 -0.169333,-0.0212 -0.338665,-0.0318 -0.518581,-0.0318 -0.07408,0 -0.137583,-0.0212 -0.201083,-0.0529 -0.08467,-0.0529 -0.15875,-0.10583 -0.232833,-0.15875 -0.03175,-0.0106 -0.0635,-0.0318 -0.07408,-0.0529 -0.04233,-0.0847 -0.116416,-0.127 -0.179916,-0.17992 -0.09525,-0.0741 -0.179916,-0.14817 -0.275166,-0.22225 -0.232832,-0.21167 -0.486831,-0.41275 -0.751414,-0.59266 -0.03175,-0.0212 -0.05292,-0.0423 -0.07408,-0.0741 -0.105833,-0.16933 -0.264583,-0.30691 -0.402165,-0.45508 -0.105833,-0.0953 -0.201083,-0.1905 -0.296333,-0.28575 -0.158749,-0.16933 -0.306916,-0.32808 -0.465665,-0.48683 -0.127,-0.13758 -0.243416,-0.27517 -0.359832,-0.43392 0.03175,-0.0106 0.05292,-0.0318 0.07408,-0.0423 0.07408,-0.0318 0.137583,-0.0529 0.201083,-0.0847 0.201082,-0.0741 0.391582,-0.16933 0.582081,-0.24341 0.137583,-0.0635 0.264583,-0.127 0.380999,-0.21167 0.201083,-0.14816 0.391582,-0.29633 0.613831,-0.42333 0.07408,-0.0423 0.148166,-0.0847 0.201083,-0.14817 0.0635,-0.0635 0.137583,-0.11641 0.211666,-0.15874 0.116416,-0.0635 0.222249,-0.14817 0.317499,-0.22225 0.222249,-0.17992 0.433915,-0.34925 0.645581,-0.52917 0.1905,-0.14817 0.370416,-0.30691 0.518582,-0.48683 0.105833,-0.11642 0.222249,-0.21167 0.328082,-0.3175 0.05292,-0.0529 0.105833,-0.10583 0.148166,-0.15875 0.137583,-0.17992 0.285749,-0.34925 0.402166,-0.53975 0.02117,-0.0423 0.04233,-0.0847 0.07408,-0.11641 0.08467,-0.0952 0.148166,-0.21167 0.211666,-0.32809 0.0635,-0.127 0.137583,-0.253995 0.201083,-0.380995 0.05292,-0.105833 0.09525,-0.211666 0.116416,-0.328082 0.01058,-0.0635 0.01058,-0.137583 0.05292,-0.201083 0.05292,-0.07408 0.03175,-0.137583 0,-0.211666 -0.05292,-0.08467 -0.09525,-0.169333 -0.179916,-0.211666 -0.03175,-0.01058 -0.0635,-0.04233 -0.08467,-0.0635 -0.07408,-0.05292 -0.148166,-0.08467 -0.222249,-0.08467 -0.05292,-0.01058 -0.09525,0.02117 -0.08467,0.0635 0.02117,0.07408 0,0.126999 -0.03175,0.190499 -0.03175,0.07408 -0.07408,0.15875 -0.09525,0.243416 -0.01058,0.07408 -0.04233,0.137583 -0.0635,0.201083 -0.04233,0.105833 -0.09525,0.211666 -0.148166,0.317499 -0.05292,0.126999 -0.105833,0.253999 -0.22225,0.349251 -0.02117,0.0212 -0.03175,0.0635 -0.05292,0.0952 -0.02117,0.0318 -0.04233,0.0741 -0.0635,0.10583 -0.127,0.15875 -0.222249,0.32808 -0.380999,0.45508 -0.04233,0.0952 -0.137583,0.15875 -0.211666,0.23283 -0.02117,0.0212 -0.04233,0.0423 -0.05292,0.0741 -0.01058,0.0106 -0.01058,0.0318 0,0.0318 0.01058,0.0212 0.03175,0.0423 0.04233,0.0423 0.04233,0 0.07408,-0.0212 0.09525,-0.0529 0.01058,-0.0529 0.03175,-0.0953 0.08467,-0.11641 0.03175,0.0423 0.05292,0.0741 0.07408,0.10583 0.03175,-0.0106 0.05292,-0.0212 0.07408,-0.0318 0.02117,0 0.04233,0 0.05292,0.0106 0.03175,0.0318 0,0.0423 -0.02117,0.0529 -0.0635,0.0318 -0.0635,0.10583 -0.08467,0.14817 -0.02117,0.0318 -0.0635,0.0423 -0.09525,0.0318 -0.01058,-0.0106 -0.02117,-0.0212 -0.03175,-0.0318 -0.03175,-0.0318 -0.05292,-0.0212 -0.07408,0 -0.02117,0.0212 -0.03175,0.0529 -0.05292,0.0741 z" />
    </g>
    <text
       style="fill:black;fill-opacity:1;line-height:1.25;stroke:none;font-family:sans-serif;font-style:normal;font-weight:normal;font-size:10.58333333px;white-space:pre;shape-inside:url(#rect26);"
       id="text24"
       xml:space="preserve" />
  </g>
</svg>
